<svg xmlns="http://www.w3.org/2000/svg" width="124" height="38.786" viewBox="0 0 124 38.786">
  <g id="Group_5491" data-name="Group 5491" transform="translate(2941 1139.802)">
    <path id="Path_867" data-name="Path 867" d="M13.1,41.922c0-4.8,1.972-8.448,5.212-10.32-1.343-.879-3.327-1.394-6.24-1.394A23,23,0,0,0,2.642,32.17L3.373,38.1a26.092,26.092,0,0,1,5.923-1c2.872,0,3.555.457,3.555,1.915v.776C8.568,40.008,0,40.464,0,47.118c0,4.512,3.782,5.971,6.472,5.971a8.21,8.21,0,0,0,6.791-3.418c.453,1.913,2.1,3.418,5.377,3.418a19.608,19.608,0,0,0,3.082-.229c-5.744-.929-8.618-4.7-8.618-10.938m-.252,3.6A3.982,3.982,0,0,1,9.8,46.936c-.909,0-1.5-.457-1.5-1.139,0-1.095,1.139-1.549,2.735-1.731.776-.093,1.822-.093,1.822-.093Z" transform="translate(-2941 -1154.104)" fill="#ff5900"/>
    <rect id="Rectangle_34" data-name="Rectangle 34" width="21.721" height="22.879" transform="translate(-2941 -1123.895)" fill="none"/>
    <path id="Path_868" data-name="Path 868" d="M49.763,38.414c0-2.689-1.232-8.2-9.481-8.2a10.881,10.881,0,0,0-5.5,1.394c2.145,1.4,2.647,3.737,2.647,6.4V44.52c0,1.6.182,2.05,1.05,2.279a3.4,3.4,0,0,0,1.458.091l.271,5.47a9.648,9.648,0,0,1-2.021.5,18.8,18.8,0,0,0,3,.229c5.422,0,7.611-.685,7.611-.685L48.486,46.3s-3.693.365-5.652.365c-2.828,0-4.42-.5-5.106-2.462H48.85a16.958,16.958,0,0,0,.913-5.787m-7.021,1.093H37.457c.364-2.826,1.867-3.6,3.1-3.6a2.024,2.024,0,0,1,2.234,2.187,8.2,8.2,0,0,1-.048,1.412" transform="translate(-2957.469 -1154.104)" fill="#00b1eb"/>
    <path id="Path_869" data-name="Path 869" d="M35.253,48.143a3.393,3.393,0,0,1-1.459-.091c-.868-.228-1.05-.682-1.05-2.278V39.257c0-2.663-.5-5-2.647-6.4-3.24,1.871-5.212,5.524-5.212,10.32,0,6.238,2.874,10.009,8.618,10.937a9.635,9.635,0,0,0,2.02-.5Z" transform="translate(-2952.782 -1155.357)" fill="#6fd745"/>
    <path id="Path_870" data-name="Path 870" d="M32.767,12.215l.727,2.473-1.5,1.738L30.3,14.749l.772-2.534v-2.8L28.6,10.741V8.97a18.289,18.289,0,0,0-8.488-2.234,17.309,17.309,0,0,0-8.491,2.233v1.772L5.546,7.577,20.107,0,34.522,7.577l-1.754.957ZM13.316,13.893V10.02a15.328,15.328,0,0,1,13.582,0v3.873a14.232,14.232,0,0,0-5.941,1.225s-2.412-1.386-7.641-1.225" transform="translate(-2943.626 -1139.801)" fill="#fbc300" fill-rule="evenodd"/>
    <path id="Path_871" data-name="Path 871" d="M91.357,6.579l3.3,12.163H90.91l-.679-2.8H86.892l-.679,2.8H82.837L86.231,6.579Zm-3.84,6.769h2.125L88.606,8.9Z" transform="translate(-2980.22 -1142.916)" fill="#6fd745"/>
    <rect id="Rectangle_35" data-name="Rectangle 35" width="3.268" height="12.752" transform="translate(-2884.36 -1136.927)" fill="#6fd745"/>
    <path id="Path_872" data-name="Path 872" d="M119.071,8.42a3.782,3.782,0,0,1-1.482-.232,2.941,2.941,0,0,1-.251-1.322,3.863,3.863,0,0,1,.233-1.446,5.016,5.016,0,0,1,1.571-.232,4.51,4.51,0,0,1,1.554.232,2.738,2.738,0,0,1,.251,1.322,4.263,4.263,0,0,1-.214,1.446,5.313,5.313,0,0,1-1.662.232m1.7,9.663H117.5V9.617h3.268Z" transform="translate(-2996.555 -1142.258)" fill="#6fd745"/>
    <path id="Path_873" data-name="Path 873" d="M135.873,21.806a5.628,5.628,0,0,1-2,.285c-1.286,0-1.929-.589-2.107-1.34a3.216,3.216,0,0,1-2.662,1.34,2.336,2.336,0,0,1-2.536-2.339c0-2.59,3.358-2.786,5.036-2.875v-.3c0-.571-.268-.75-1.393-.75a10.245,10.245,0,0,0-2.322.393l-.286-2.322a9.028,9.028,0,0,1,3.7-.768c2.964,0,3.483,1.357,3.483,3.054v2.554c0,.34,0,.947.679.947a2.745,2.745,0,0,0,.3-.018ZM131.6,18.519s-.411,0-.714.036c-.626.072-1.072.268-1.072.679,0,.268.232.447.59.447a1.561,1.561,0,0,0,1.2-.554Z" transform="translate(-3000.925 -1146.016)" fill="#6fd745"/>
    <path id="Path_874" data-name="Path 874" d="M152.263,21.856V17.231c0-.661-.178-1.108-1.107-1.108a2.7,2.7,0,0,0-1.321.464v5.269h-3.251V13.391h3.054l.125,1.072a4.461,4.461,0,0,1,2.947-1.3,2.587,2.587,0,0,1,2.822,2.751v5.948Z" transform="translate(-3010.401 -1146.031)" fill="#6fd745"/>
    <path id="Path_875" data-name="Path 875" d="M166.485,13.6h6.895v2.2l-3.555,4.054h3.911v2.215h-7.68v-2.2l3.518-4.072h-3.09Z" transform="translate(-3019.621 -1146.24)" fill="#6fd745"/>
    <path id="Path_876" data-name="Path 876" d="M191.443,21.806a5.623,5.623,0,0,1-2,.285c-1.286,0-1.929-.589-2.107-1.34a3.216,3.216,0,0,1-2.662,1.34,2.336,2.336,0,0,1-2.536-2.339c0-2.59,3.358-2.786,5.036-2.875v-.3c0-.571-.268-.75-1.393-.75a10.244,10.244,0,0,0-2.322.393l-.286-2.322a9.027,9.027,0,0,1,3.7-.768c2.965,0,3.483,1.357,3.483,3.054v2.554c0,.34,0,.947.679.947a2.745,2.745,0,0,0,.3-.018Zm-4.268-3.287s-.411,0-.714.036c-.626.072-1.072.268-1.072.679,0,.268.232.447.59.447a1.561,1.561,0,0,0,1.2-.554Z" transform="translate(-3027.235 -1146.016)" fill="#6fd745"/>
    <path id="Path_877" data-name="Path 877" d="M84.534,47.29H92.16V50H87.641v2.018h3.5v2.536h-3.5v2.178h4.84v2.715H84.534Z" transform="translate(-2981.023 -1162.191)" fill="#6fd745"/>
    <path id="Path_878" data-name="Path 878" d="M110.568,58.922h-3.019l-.107-.786a3.229,3.229,0,0,1-2.429,1.036c-1.875,0-3.483-1.446-3.483-4.376,0-2.75,1.7-4.59,4.286-4.59a5.219,5.219,0,0,1,1.5.214V46.17h3.25Zm-3.25-2.7v-3.34a3.307,3.307,0,0,0-.947-.107c-1,0-1.554.786-1.554,1.911,0,1.3.661,1.84,1.411,1.84a2.109,2.109,0,0,0,1.089-.3" transform="translate(-2989.071 -1161.661)" fill="#6fd745"/>
    <path id="Path_879" data-name="Path 879" d="M125.647,54.311v4.626c0,.661.125,1.125,1.054,1.125a2.6,2.6,0,0,0,1.268-.482V54.311h3.251v8.466h-3.054l-.125-1.072a4.353,4.353,0,0,1-2.893,1.3,2.558,2.558,0,0,1-2.786-2.751V54.311Z" transform="translate(-2998.932 -1165.515)" fill="#6fd745"/>
    <path id="Path_880" data-name="Path 880" d="M149.281,62.32a6.9,6.9,0,0,1-2.84.482,4.077,4.077,0,0,1-4.268-4.411c0-3,2.09-4.554,4.769-4.554a6.77,6.77,0,0,1,2.233.3l-.251,2.536a8.495,8.495,0,0,0-1.571-.142,1.729,1.729,0,0,0-1.929,1.857,1.676,1.676,0,0,0,1.84,1.714,6.646,6.646,0,0,0,1.876-.25Z" transform="translate(-3008.313 -1165.291)" fill="#6fd745"/>
    <path id="Path_881" data-name="Path 881" d="M166.61,62.517a5.628,5.628,0,0,1-2,.285c-1.286,0-1.929-.589-2.107-1.34a3.216,3.216,0,0,1-2.662,1.34,2.336,2.336,0,0,1-2.536-2.339c0-2.59,3.358-2.786,5.036-2.875v-.3c0-.571-.268-.75-1.393-.75a10.245,10.245,0,0,0-2.322.393L158.34,54.6a9.028,9.028,0,0,1,3.7-.768c2.964,0,3.483,1.357,3.483,3.054v2.554c0,.34,0,.947.679.947a2.745,2.745,0,0,0,.3-.018Zm-4.269-3.287s-.411,0-.714.036c-.626.072-1.072.268-1.072.679,0,.268.232.447.59.447a1.561,1.561,0,0,0,1.2-.554Z" transform="translate(-3015.477 -1165.291)" fill="#6fd745"/>
    <path id="Path_882" data-name="Path 882" d="M175.532,51.984h1.536V49.537l3.233-.178v2.625h2.322v2.2H180.3v2.357c0,1.268.5,1.322,1.161,1.322a9.824,9.824,0,0,0,1.214-.107l.09,2.554a10.883,10.883,0,0,1-2.965.375,2.439,2.439,0,0,1-2.733-2.661v-3.84h-1.75Z" transform="translate(-3024.006 -1163.171)" fill="#6fd745"/>
    <path id="Path_883" data-name="Path 883" d="M193.707,49.131a3.78,3.78,0,0,1-1.482-.232,2.941,2.941,0,0,1-.251-1.322,3.88,3.88,0,0,1,.232-1.447,5.039,5.039,0,0,1,1.572-.232,4.525,4.525,0,0,1,1.554.232,2.739,2.739,0,0,1,.251,1.322,4.25,4.25,0,0,1-.215,1.446,5.307,5.307,0,0,1-1.661.232m1.7,9.663h-3.268V50.329H195.4Z" transform="translate(-3031.892 -1161.532)" fill="#6fd745"/>
    <path id="Path_884" data-name="Path 884" d="M203.915,54.311l1.447,6.233,1.393-6.233H209.7l-2.357,8.466h-4.358l-2.393-8.466Z" transform="translate(-3035.972 -1165.515)" fill="#6fd745"/>
    <path id="Path_885" data-name="Path 885" d="M227.132,62.517a5.622,5.622,0,0,1-2,.285c-1.286,0-1.929-.589-2.107-1.34a3.216,3.216,0,0,1-2.662,1.34,2.336,2.336,0,0,1-2.536-2.339c0-2.59,3.358-2.786,5.036-2.875v-.3c0-.571-.268-.75-1.393-.75a10.245,10.245,0,0,0-2.322.393l-.286-2.322a9.027,9.027,0,0,1,3.7-.768c2.965,0,3.483,1.357,3.483,3.054v2.554c0,.34,0,.947.679.947a2.745,2.745,0,0,0,.3-.018Zm-4.268-3.287s-.411,0-.714.036c-.626.072-1.072.268-1.072.679,0,.268.232.447.59.447a1.561,1.561,0,0,0,1.2-.554Z" transform="translate(-3044.132 -1165.291)" fill="#6fd745"/>
    <rect id="Rectangle_36" data-name="Rectangle 36" width="124" height="38.786" transform="translate(-2941 -1139.802)" fill="none"/>
    <rect id="Rectangle_37" data-name="Rectangle 37" width="124" height="38.786" transform="translate(-2941 -1139.801)" fill="none"/>
  </g>
</svg>
