<svg xmlns="http://www.w3.org/2000/svg" width="260" height="39.345" viewBox="0 0 260 39.345">
  <g id="Group_3369" data-name="Group 3369" transform="translate(-140 -149)">
    <g id="Group_4067" data-name="Group 4067" transform="translate(0 72)">
      <g id="Group_4060" data-name="Group 4060" transform="translate(140 77)">
        <path id="Path_2363" data-name="Path 2363" d="M57.425,11.553c0,1.754.125,3.383.125,5.137v6.14c0,1.629-.125,3.383-.125,5.012,0,.627-.125,1.378-.125,2.13.877,0,1.754-.251,2.631-.251a18.694,18.694,0,0,1,2.631.251c0-3.007-.125-6.014-.125-9.022,0-2.506-.125-7.267,3.133-7.267,3.133,0,3.007,4.135,3.007,6.516v3.007c0,1.5-.125,3.133-.125,4.636,0,.627-.125,1.378-.125,2.13.877,0,1.629-.251,2.506-.251a22.369,22.369,0,0,1,2.882.251V18.445c0-2,.125-4.26-1.253-5.889A5.521,5.521,0,0,0,67.951,10.3c-2.255,0-4.135,1.5-5.513,3.383l.125-2.882a14.388,14.388,0,0,1-2.381.125c-.877,0-1.754-.125-2.631-.125Z" transform="translate(12.368 0.351)" fill="#ff8300"/>
        <path id="Path_2364" data-name="Path 2364" d="M83.329,6.835a6.886,6.886,0,0,0,1.128-.877c.376-.627.627-.752.627-1.5A1.871,1.871,0,0,0,84.707,3.2a2.252,2.252,0,0,0-1.128-.5,1.646,1.646,0,0,0-1.253.376A3.234,3.234,0,0,0,81.2,4.2l-4.636,6.014h2ZM73.18,17.486c.125-.125.251-.376.376-.5a5.614,5.614,0,0,1,4.01-1.754,3.448,3.448,0,0,1,3.383,3.383c0,.627,0,1.128-.5,1.5a9.531,9.531,0,0,1-2.631,1,16.672,16.672,0,0,0-4.386,1.629,5.183,5.183,0,0,0-2.13,4.386c0,3.508,2.255,5.263,5.137,5.263a5.45,5.45,0,0,0,4.636-2.882A3.841,3.841,0,0,0,84.707,32.4a6.289,6.289,0,0,0,1.5-.251c.627-.251,1.253-.5,1.754-.752v-.376c0-1,0-.251-1.253-.627a2.142,2.142,0,0,1-.877-1.629V26.507c0-2,.125-3.884.125-5.889V17.987c-.125-4.01-3.634-5.388-6.641-5.388a10.073,10.073,0,0,0-6.641,2.631l.5,2.381h0Zm4.26,5.889a6.648,6.648,0,0,1,2.13-1,7.665,7.665,0,0,1,1.5-.627c-.125,1.253-.125,2.506-.125,3.884,0,2-.5,4.26-2.631,4.26-1.5,0-2-1.5-2-3.007s.251-2.757,1.128-3.508" transform="translate(15.91 -1.572)" fill="#ff8300"/>
        <path id="Path_2365" data-name="Path 2365" d="M90.588,1.925a20.3,20.3,0,0,1-2.757.125A9.382,9.382,0,0,1,85.2,1.8c.125,4.386.251,8.771.251,13.031v4.636l-.125,10.024c0,.877-.125,1.629-.125,2.631.877,0,1.754-.251,2.631-.251a18.693,18.693,0,0,1,2.631.251c0-3.007-.125-6.014-.125-9.022,0-2.506-.125-7.267,3.133-7.267a3.189,3.189,0,0,1,2.757,2.381c.125.877.251,3.007.251,4.01a32.831,32.831,0,0,1-.125,3.508L96.1,29.617c0,.877-.125,1.754-.125,2.631.877,0,1.754-.251,2.631-.251a22.5,22.5,0,0,1,2.757.251V19.593c0-2-.125-3.634-1.5-5.137a5.611,5.611,0,0,0-4.26-1.88c-2,0-4.135,1.629-5.388,3.133l.125-4.386Z" transform="translate(19.427 -1.8)" fill="#ff8300"/>
        <path id="Path_2366" data-name="Path 2366" d="M110.927,29.846a13.807,13.807,0,0,1,2.255-.251,22.5,22.5,0,0,1,2.757.251v-.752c-.125-1.754-.125-3.634-.125-5.388v-2c0-2.13,0-4.26.125-6.39,0-1.5,0-3.007.125-4.511a18.5,18.5,0,0,1-2.631.125c-.877,0-1.754-.125-2.631-.125,0,3.007.125,6.014.125,9.022,0,2.506.125,7.267-3.133,7.267a2.652,2.652,0,0,1-2.506-2.13,10.038,10.038,0,0,1-.376-3.383,102.038,102.038,0,0,1,.376-10.776,16.793,16.793,0,0,1-2.506.125c-1,0-1.88-.125-2.882-.125V21.7c0,2-.125,4.511,1,6.265a5.636,5.636,0,0,0,4.887,2.506c2.506,0,3.759-1.253,5.388-3.258Z" transform="translate(23.145 0.477)" fill="#ff8300"/>
        <path id="Path_2367" data-name="Path 2367" d="M115.68,15.487c.125-.125.251-.376.376-.5a5.614,5.614,0,0,1,4.01-1.754,3.448,3.448,0,0,1,3.383,3.383c0,.627,0,1.128-.5,1.5a9.531,9.531,0,0,1-2.631,1,16.672,16.672,0,0,0-4.386,1.629,5.183,5.183,0,0,0-2.13,4.386c0,3.508,2.255,5.263,5.137,5.263a5.45,5.45,0,0,0,4.636-2.882,3.841,3.841,0,0,0,3.634,2.882,6.289,6.289,0,0,0,1.5-.251,7.406,7.406,0,0,0,1.754-.752v-.376c0-1,0-.251-1.253-.627a2.142,2.142,0,0,1-.877-1.629V24.508c0-2,.125-3.884.125-5.889V15.988c-.125-4.01-3.634-5.388-6.641-5.388a10.073,10.073,0,0,0-6.641,2.631l.5,2.381h0Zm4.26,5.889a6.648,6.648,0,0,1,2.13-1,7.665,7.665,0,0,1,1.5-.627c-.125,1.253-.125,2.631-.125,3.884,0,2-.5,4.26-2.631,4.26-1.5,0-2-1.5-2-3.007s.125-2.757,1.128-3.508" transform="translate(26.663 0.427)" fill="#ff8300"/>
        <path id="Path_2368" data-name="Path 2368" d="M142.288,12.18a11.147,11.147,0,0,0-6.265-1.88c-5.639,0-9.523,4.01-9.523,10.4a10.489,10.489,0,0,0,2.631,7.142c1.754,2,4.386,2.506,6.892,2.506,1.253,0,3.884-.5,4.887-1.5l.877-2.381-.626-.5a5.007,5.007,0,0,1-3.759,1.88,4.246,4.246,0,0,1-4.135-2.255,9.843,9.843,0,0,1-1.253-5.639c0-3.007,1-7.643,4.386-7.643,2.13,0,3.383,1.754,3.634,4.01h.877Z" transform="translate(29.876 0.351)" fill="#ff8300"/>
        <path id="Path_2369" data-name="Path 2369" d="M52.233,21.066c-1-3.258-2-6.39-3.258-9.523-1.253,3.133-2.381,6.265-3.383,9.523Zm9.523,10.651a28.639,28.639,0,0,0-3.133-.251,24.332,24.332,0,0,0-3.007.251c-.752-2.757-1.629-5.513-2.506-8.145-1.5,0-3.007-.125-4.636-.125-1.253,0-2.506,0-3.759.125-1,2.757-1.754,5.388-2.506,8.145a8.461,8.461,0,0,0-1.754-.251,8.461,8.461,0,0,0-1.754.251c1.754-4.386,7.142-18.67,10.275-27.817a6.466,6.466,0,0,0,1.378.251A5.329,5.329,0,0,0,51.731,3.9C54.864,13.047,59,25.2,61.755,31.717" transform="translate(7.661 -1.269)" fill="#ff8300"/>
        <path id="Path_2370" data-name="Path 2370" d="M11,9.318,20.9,20.6l2.13-1.88L13,7.439Zm3.133-2.757,9.9,11.277,2.13-1.88L16.137,4.682ZM17.265,3.68l9.774,11.277,2.13-1.88L19.145,1.8Z" transform="translate(0.653 -1.8)" fill="#ff8300"/>
        <path id="Path_2371" data-name="Path 2371" d="M9.3,25.743,19.2,37.02l2.13-1.88L11.3,23.864Zm3.133-2.757,9.9,11.277,2.13-1.88L14.437,21.107ZM15.44,19.98l9.9,11.277,2.13-1.88L17.445,18.1Z" transform="translate(0.223 2.324)" fill="#ff8300"/>
        <path id="Path_2372" data-name="Path 2372" d="M29.277,10.9,18,20.674l1.88,2.13L31.157,12.78Zm2.757,3.133L20.757,23.806l1.88,2.13L33.913,15.912Zm3.007,3.007L23.764,26.813l1.88,2.13L36.92,18.919Z" transform="translate(2.424 0.502)" fill="#693f22"/>
        <path id="Path_2373" data-name="Path 2373" d="M12.977,9.4,1.7,19.174,3.58,21.3,14.857,11.28Zm2.757,3.007L4.457,22.181l1.88,2.13L17.613,14.287Zm3.007,3.133L7.464,25.313l1.88,2.13L20.62,17.419Z" transform="translate(-1.7 0.123)" fill="#693f22"/>
        <path id="Path_2374" data-name="Path 2374" d="M142.2,20.424a16.592,16.592,0,0,1,.626-4.636,10.736,10.736,0,0,1,1.754-3.133,8.277,8.277,0,0,1,2.506-1.754,7.831,7.831,0,0,1,5.513,0,6.543,6.543,0,0,1,2.506,1.754,6.857,6.857,0,0,1,1.754,3.133,12.577,12.577,0,0,1,.626,4.636,16.592,16.592,0,0,1-.626,4.636,10.736,10.736,0,0,1-1.754,3.133,6.177,6.177,0,0,1-2.506,1.629,7.831,7.831,0,0,1-5.513,0,7.833,7.833,0,0,1-2.506-1.629,6.857,6.857,0,0,1-1.754-3.133A15.937,15.937,0,0,1,142.2,20.424Zm2.757,0a26.463,26.463,0,0,0,.251,3.258,6.5,6.5,0,0,0,.877,2.757,4.558,4.558,0,0,0,1.5,1.88,3.613,3.613,0,0,0,2.381.752,3.856,3.856,0,0,0,2.381-.752,5.548,5.548,0,0,0,1.5-1.88,14.276,14.276,0,0,0,.877-2.757,26.457,26.457,0,0,0,.251-3.258,26.463,26.463,0,0,0-.251-3.258,6.5,6.5,0,0,0-.877-2.757,4.558,4.558,0,0,0-1.5-1.88,3.613,3.613,0,0,0-2.381-.752,3.856,3.856,0,0,0-2.381.752,5.548,5.548,0,0,0-1.5,1.88,14.274,14.274,0,0,0-.877,2.757A28.515,28.515,0,0,0,144.957,20.424Z" transform="translate(33.848 0.376)" fill="#ff8300"/>
        <path id="Path_2375" data-name="Path 2375" d="M166.672,14.083a2.9,2.9,0,0,0-2.506-1.5,3.5,3.5,0,0,0-3.258,1.754,8.887,8.887,0,0,0-1,4.887v7.142A31.045,31.045,0,0,0,160.157,30c-.5,0-1-.125-1.378-.125A4.7,4.7,0,0,0,157.4,30c.125-1.128.125-2.255.251-3.634V14.71c0-1.253-.125-2.506-.251-3.759a11.171,11.171,0,0,0,1.378.251h.5c.251,0,.5-.125.752-.125a28.32,28.32,0,0,0-.125,3.258h.125a7.565,7.565,0,0,1,2.13-2.631,5.1,5.1,0,0,1,3.007-1,4,4,0,0,1,1.754.376,4.768,4.768,0,0,1,1.629,1.128,6.833,6.833,0,0,1,1.253,2.13,12.072,12.072,0,0,1,.5,3.383,32.831,32.831,0,0,1-.125,3.508c0,1.253-.125,2.506-.125,3.884v4.636c-.376,0-.877-.125-1.378-.125a3.863,3.863,0,0,0-1.253.125c0-1.378.125-2.757.125-4.26s.125-3.007.125-4.511V18.594A8.586,8.586,0,0,0,166.672,14.083Z" transform="translate(37.694 0.452)" fill="#ff8300"/>
        <path id="Path_2376" data-name="Path 2376" d="M171.951,10.42V7.288a24.14,24.14,0,0,0-.125-3.007c0-1-.125-1.754-.125-2.381a11.17,11.17,0,0,0,1.378.251,6.466,6.466,0,0,0,1.378-.251c0,.627-.125,1.5-.125,2.381a25.164,25.164,0,0,1-.125,3.007V26.835a24.143,24.143,0,0,0,.125,3.007c0,.877.125,1.754.125,2.381-.5,0-1-.125-1.378-.125a4.7,4.7,0,0,0-1.378.125c0-.627.125-1.378.125-2.381a26.224,26.224,0,0,1,.125-3.007V10.42Z" transform="translate(41.312 -1.775)" fill="#ff8300"/>
        <path id="Path_2377" data-name="Path 2377" d="M178.5,5.6a1.884,1.884,0,0,1,.5-1.378,1.732,1.732,0,0,1,1.128-.627,1.316,1.316,0,0,1,1.128.627,1.884,1.884,0,0,1,.5,1.378,1.884,1.884,0,0,1-.5,1.378,1.732,1.732,0,0,1-1.128.627A1.316,1.316,0,0,1,179,6.983,1.561,1.561,0,0,1,178.5,5.6ZM179,20.14V16.381a35.489,35.489,0,0,0-.251-3.759,11.17,11.17,0,0,0,1.378.251,6.466,6.466,0,0,0,1.378-.251c-.125,1.128-.125,2.381-.251,3.759a37.519,37.519,0,0,0,0,3.759v7.894a31.045,31.045,0,0,0,.251,3.634c-.5,0-1-.125-1.378-.125a4.7,4.7,0,0,0-1.378.125c.125-1.128.125-2.255.251-3.634V20.14Z" transform="translate(43.033 -1.345)" fill="#ff8300"/>
        <path id="Path_2378" data-name="Path 2378" d="M194.572,14.083a2.9,2.9,0,0,0-2.506-1.5,3.5,3.5,0,0,0-3.258,1.754,8.887,8.887,0,0,0-1,4.887v7.142A31.041,31.041,0,0,0,188.057,30c-.5,0-1-.125-1.378-.125A4.7,4.7,0,0,0,185.3,30c.125-1.128.125-2.255.251-3.634V14.71c0-1.253-.125-2.506-.251-3.759a11.17,11.17,0,0,0,1.378.251h.5c.251,0,.5-.125.752-.125a28.32,28.32,0,0,0-.125,3.258h.125a7.565,7.565,0,0,1,2.13-2.631,5.1,5.1,0,0,1,3.007-1,4,4,0,0,1,1.754.376,4.768,4.768,0,0,1,1.629,1.128,6.832,6.832,0,0,1,1.253,2.13,12.072,12.072,0,0,1,.5,3.383,32.827,32.827,0,0,1-.125,3.508c0,1.253-.125,2.506-.125,3.884v4.636c-.376,0-.877-.125-1.378-.125a3.863,3.863,0,0,0-1.253.125c0-1.378.125-2.757.125-4.26s.125-3.007.125-4.511V18.594A10.008,10.008,0,0,0,194.572,14.083Z" transform="translate(44.753 0.452)" fill="#ff8300"/>
        <path id="Path_2379" data-name="Path 2379" d="M198.1,21.025a13.972,13.972,0,0,1,1.88-7.769,6.065,6.065,0,0,1,5.513-2.757,6.534,6.534,0,0,1,2.882.627,5.5,5.5,0,0,1,2,1.754,8.532,8.532,0,0,1,1.253,2.631,12.623,12.623,0,0,1,.376,3.133v1.5a30.533,30.533,0,0,1-3.383-.125h-5.513a12.156,12.156,0,0,0-2.13.125v1.128a10.681,10.681,0,0,0,.376,2.882,8.311,8.311,0,0,0,1.128,2.381,5.1,5.1,0,0,0,1.754,1.5,4.8,4.8,0,0,0,2.381.627,4.452,4.452,0,0,0,1.253-.251,3.92,3.92,0,0,0,1.253-.627,7.606,7.606,0,0,0,1.253-.877,8.108,8.108,0,0,0,1-1.128l.125.125-.251,2a8.812,8.812,0,0,1-2.381,1.629,6.19,6.19,0,0,1-3.007.627,8.208,8.208,0,0,1-3.133-.627,9.388,9.388,0,0,1-2.506-1.88,8.75,8.75,0,0,1-1.629-3.007A11.584,11.584,0,0,1,198.1,21.025Zm7.393-9.272a3.467,3.467,0,0,0-2,.627,6.586,6.586,0,0,0-1.378,1.754,5.989,5.989,0,0,0-.752,2.255c-.125.752-.251,1.629-.376,2.255a10.778,10.778,0,0,1,2,.125h4.26a12.156,12.156,0,0,0,2.13-.125,13.618,13.618,0,0,0-.125-2.255,7.606,7.606,0,0,0-.626-2.255,3.515,3.515,0,0,0-1.253-1.754A2.594,2.594,0,0,0,205.493,11.753Z" transform="translate(47.992 0.401)" fill="#ff8300"/>
      </g>
    </g>
  </g>
</svg>
