<svg xmlns="http://www.w3.org/2000/svg" xmlns:xlink="http://www.w3.org/1999/xlink" width="107" height="32" viewBox="0 0 107 32">
  <defs>
    <clipPath id="clip-path">
      <rect id="Rectangle_864" data-name="Rectangle 864" width="107" height="32" transform="translate(-21845 -6312.22)" fill="none" stroke="#707070" stroke-width="1"/>
    </clipPath>
  </defs>
  <g id="Mask_Group_26" data-name="Mask Group 26" transform="translate(21845 6312.22)" clip-path="url(#clip-path)">
    <g id="Group_7143" data-name="Group 7143" transform="translate(-21844.281 -6311.005)">
      <g id="Group_4221" data-name="Group 4221" transform="translate(0)">
        <g id="Group_4220" data-name="Group 4220" transform="translate(0)" style="mix-blend-mode: multiply;isolation: isolate">
          <g id="Group_4219" data-name="Group 4219">
            <g id="Group_4218" data-name="Group 4218">
              <path id="Path_2526" data-name="Path 2526" d="M868.561,1620.051h-5.126v2.717h1.612l-.009,17.3h5.134v-2.621h-1.611Z" transform="translate(-843.208 -1609.67)" fill="#1d1d1b"/>
              <path id="Path_2527" data-name="Path 2527" d="M877.218,1630.823c-1.874-.38-2.256-1.022-2.256-1.754,0-.642.5-1.4,2.431-1.4h4.6v-2.309a17.736,17.736,0,0,0-4.745-.612c-3.428,0-6.094,1.255-6.094,4.323,0,3.507,2.755,4.15,5.508,4.677,1.874.379,2.256.935,2.256,1.667,0,.672-.5,1.606-2.373,1.606l-5.447.01v2.3a24.558,24.558,0,0,0,5.623.612c3.458,0,6.005-1.256,6.005-4.527,0-3.3-2.752-4.062-5.506-4.59" transform="translate(-842.521 -1609.249)" fill="#1d1d1b"/>
              <path id="Path_2528" data-name="Path 2528" d="M890.688,1631.174h-3.662c.206-2.045,1.171-3.508,3.251-3.508,1.495,0,2.345.878,2.345,1.812,0,.877-.527,1.7-1.934,1.7m-.351-6.429c-4.953,0-7.089,3.01-7.089,7.6s1.816,7.6,6.737,7.6a21.834,21.834,0,0,0,5.127-.615v-2.308h-5.127c-2.168,0-2.9-1.52-3.017-3.624H891.8c3.459,0,4.337-2.045,4.337-4.121,0-2.249-1.847-4.529-5.8-4.529" transform="translate(-841.431 -1609.249)" fill="#1d1d1b"/>
              <path id="Path_2529" data-name="Path 2529" d="M904.578,1634.534a2.683,2.683,0,0,1-2.783,2.689c-1.23,0-2.342-.526-2.342-1.958,0-1.374.878-2.017,2.4-2.017h2.724Zm3.515,2.427V1629.6c0-3.859-2.022-4.851-5.564-4.851a30.834,30.834,0,0,0-5.627.613v2.309h5.275c1.933,0,2.4.732,2.4,2.076v1.285h-3.692c-2.461,0-4.95.965-4.95,4.472a4.162,4.162,0,0,0,4.4,4.443,4.622,4.622,0,0,0,4.189-1.958h.058l.294,1.666h4.98v-2.688Z" transform="translate(-840.294 -1609.249)" fill="#1d1d1b"/>
              <path id="Path_2530" data-name="Path 2530" d="M852.57,1630.859l2.453-7.337h.109l2.326,7.3Zm5.055-10.808h-5.091l-5.909,17.33h-1.753v2.69h6.986v-2.69h-1.47l1.215-3.632h6.9l1.292,3.632H858.3v2.69h7.014v-2.69h-1.782Z" transform="translate(-844.872 -1609.67)" fill="#1d1d1b"/>
              <path id="Path_2531" data-name="Path 2531" d="M908.419,1619.59h5.43a.615.615,0,0,1,.6.475l2.358,10.354,6.043-7.5a.621.621,0,0,1,.72-.181l5.219,2.221-.511-5.533a.605.605,0,0,1,.241-.544l3.59-2.71-2.854-2.931a.62.62,0,0,1-.159-.555l.89-4.171-4.152-1.1a.621.621,0,0,1-.4-.334l-1.663-3.587-4.2,2.594a.608.608,0,0,1-.52.058l-6.243-2.129.54,3.862a.608.608,0,0,1-.384.654l-5.752,2.242,4.161,2.773a.61.61,0,0,1,.184.824Zm8.07,12.811a.582.582,0,0,1-.138-.016.614.614,0,0,1-.461-.461l-2.531-11.11h-6.022a.612.612,0,0,1-.525-.927l3.4-5.645-4.654-3.1a.611.611,0,0,1,.118-1.078l6.4-2.494-.611-4.368a.613.613,0,0,1,.805-.665l6.911,2.359,4.545-2.8a.605.605,0,0,1,.5-.066.612.612,0,0,1,.38.33l1.833,3.951,4.438,1.177a.613.613,0,0,1,.441.72l-.943,4.42,3.108,3.195a.609.609,0,0,1-.07.913l-3.873,2.923.574,6.216a.6.6,0,0,1-.247.549.621.621,0,0,1-.6.069l-5.737-2.44-6.55,8.123a.616.616,0,0,1-.477.229" transform="translate(-828.584 -1602)" fill="#1d1d1b"/>
              <path id="Path_2532" data-name="Path 2532" d="M919.719,1610.961a2.4,2.4,0,1,0,2.4,2.4,2.4,2.4,0,0,0-2.4-2.4m0,5.919a3.521,3.521,0,1,1,3.529-3.522,3.53,3.53,0,0,1-3.529,3.522" transform="translate(-827.606 -1601.297)" fill="#1d1d1b"/>
              <path id="Path_2533" data-name="Path 2533" d="M919.327,1608.011a1.963,1.963,0,0,0-.235.013c-1.8.241-5.376,5.486-5.187,7.1.157,1.339,5.993,4.519,7.759,4.519a.508.508,0,0,0,.1-.008c1.033-.22,3.78-4.161,3.794-6.849a3.541,3.541,0,0,0-1.2-2.269,8.733,8.733,0,0,0-5.031-2.5m2.337,12.854h0c-1.871,0-8.693-3.18-8.978-5.6-.265-2.242,3.719-8.117,6.243-8.452,1.668-.219,4.566,1.1,6.3,2.841a4.58,4.58,0,0,1,1.559,3.137c-.016,2.894-2.823,7.629-4.766,8.041a1.638,1.638,0,0,1-.355.035" transform="translate(-827.921 -1601.571)" fill="#1d1d1b"/>
            </g>
          </g>
        </g>
      </g>
    </g>
  </g>
</svg>
