<svg xmlns="http://www.w3.org/2000/svg" xmlns:xlink="http://www.w3.org/1999/xlink" width="194.402" height="51.713" viewBox="0 0 194.402 51.713">
  <defs>
    <clipPath id="clip-path">
      <rect id="Rectangle_50" data-name="Rectangle 50" width="194.402" height="51.713" fill="#121212"/>
    </clipPath>
  </defs>
  <g id="Group_3477" data-name="Group 3477" clip-path="url(#clip-path)">
    <path id="Path_900" data-name="Path 900" d="M2.646,35.235a1,1,0,0,1-.786-.024,1.006,1.006,0,0,1-.544-.568.986.986,0,0,1,.024-.78.994.994,0,0,1,.57-.545,1.021,1.021,0,0,1,.782.02.975.975,0,0,1,.546.569.988.988,0,0,1-.023.787,1,1,0,0,1-.569.542m46.925-1.918a1.038,1.038,0,0,1,.592,1.327,1.025,1.025,0,0,1-1.9.051.974.974,0,0,1-.025-.785.986.986,0,0,1,.544-.572,1.03,1.03,0,0,1,.785-.02" transform="translate(-0.159 -4.239)" fill="#121212"/>
    <path id="Path_901" data-name="Path 901" d="M21.792,17.544l8.085,9.242,1.779-1.506-8.219-9.244Zm2.536-2.262,8.083,9.243,1.78-1.505L25.97,13.778Zm2.535-2.394,8.081,9.241,1.783-1.505L28.507,11.38Z" transform="translate(-2.778 -1.451)" fill="#121212"/>
    <path id="Path_902" data-name="Path 902" d="M19.748,36.806l8.084,9.245,1.78-1.509L21.393,35.3Zm2.536-2.261,8.083,9.245,1.78-1.505-8.218-9.242Zm2.534-2.392L32.9,41.394l1.783-1.507-8.22-9.244Z" transform="translate(-2.518 -3.907)" fill="#121212"/>
    <path id="Path_903" data-name="Path 903" d="M39.322,22.049l-9.249,8.079,1.506,1.78,9.249-8.214Zm2.261,2.532-9.249,8.078,1.509,1.78,9.248-8.215Zm2.4,2.533-9.248,8.079,1.508,1.778,9.248-8.213Z" transform="translate(-3.834 -2.811)" fill="#121212"/>
    <path id="Path_904" data-name="Path 904" d="M20.087,20.245l-9.249,8.077L12.344,30.1l9.249-8.215Zm2.259,2.533L13.1,30.856l1.508,1.779,9.246-8.216Zm2.4,2.533L15.5,33.388,17,35.17l9.247-8.218Z" transform="translate(-1.382 -2.581)" fill="#121212"/>
    <path id="Path_905" data-name="Path 905" d="M4.189,29.56a1.776,1.776,0,0,0-.45-1.314,2.065,2.065,0,0,0-1.5-.448c-.259,0-.5,0-.736-.01s-.448-.014-.639-.024S.5,27.751.352,27.741.089,27.727,0,27.717c.009.051.015.1.024.15s.006.1.006.15,0,.092-.006.143-.016.106-.024.163c.276-.017.551-.031.825-.037s.544-.014.82-.014.549.01.809.027a2.4,2.4,0,0,1,.681.129,1.085,1.085,0,0,1,.479.307.825.825,0,0,1,.18.563,1.871,1.871,0,0,1-.062.515.73.73,0,0,1-.237.374,1.319,1.319,0,0,1-.522.227,4.142,4.142,0,0,1-.879.08c-.343,0-.68-.005-1.01-.013S.388,30.447,0,30.41c.009.079.015.161.024.245s.006.165.006.243,0,.162-.006.248-.016.164-.024.243c.1-.009.251-.015.449-.018s.461-.005.784-.005c.108,0,.21,0,.31.005h.313c.106,0,.224,0,.352.007h.424a1.725,1.725,0,0,0,.724-.136,1.383,1.383,0,0,0,.485-.389,1.47,1.47,0,0,0,.263-.577,2.9,2.9,0,0,0,.085-.716" transform="translate(0 -3.534)" fill="#121212"/>
    <path id="Path_906" data-name="Path 906" d="M1.345,25.25c.3.046.613.1.938.166s.623.12.9.18.506.1.7.147.3.068.333.079a2.622,2.622,0,0,1,.031-.27c.006-.045.015-.089.02-.136a1.081,1.081,0,0,1,.036-.141c-.046,0-.1-.01-.174-.016s-.17-.017-.285-.032-.257-.032-.423-.057-.365-.056-.6-.094l-.687-.108c-.117-.019-.234-.036-.347-.053l-.34-.068q1.65-1.137,3.261-2.128c0-.069.012-.145.024-.234s.031-.162.052-.239l-.708-.113c-.286-.044-.552-.089-.8-.126l-.76-.14c-.255-.048-.524-.1-.808-.157s-.614-.125-.969-.2a1.58,1.58,0,0,1-.013.271,1.522,1.522,0,0,1-.072.263,1.411,1.411,0,0,1,.234.017c.117.01.251.028.41.051s.332.047.522.077.374.056.568.086l1.086.171q-.818.55-1.612,1.071c-.526.346-1.064.7-1.606,1.045a1.565,1.565,0,0,1-.014.272,1.506,1.506,0,0,1-.072.263c.142.018.307.039.495.059s.414.054.685.1" transform="translate(-0.021 -2.742)" fill="#121212"/>
    <path id="Path_907" data-name="Path 907" d="M2.919,19.894l.777.238q.478.144.845.271c.243.08.479.164.711.251a1.978,1.978,0,0,1,.053-.216c.024-.074.049-.159.079-.256s.054-.18.078-.258a1.548,1.548,0,0,1,.077-.206c-.242-.058-.485-.12-.732-.187s-.534-.151-.85-.249l-.777-.238q-.475-.141-.838-.266c-.245-.085-.49-.17-.734-.263-.011.067-.027.139-.042.219s-.044.162-.074.259-.057.181-.084.254-.061.143-.088.207c.255.059.506.126.756.193s.527.15.844.245" transform="translate(-0.168 -2.361)" fill="#121212"/>
    <path id="Path_908" data-name="Path 908" d="M5.765,15.823c-.266-.029-.538-.054-.815-.079l-.817-.085-.8-.092c-.26-.033-.5-.068-.734-.106-.031.082-.063.167-.094.247s-.072.161-.111.241-.078.158-.124.238-.091.153-.139.233c.165.008.362.023.594.037s.484.032.753.053l.83.057c.288.023.567.044.838.072s.53.045.771.071.45.038.619.055a3.193,3.193,0,0,1,.231-.475c-.25-.25-.515-.526-.795-.824s-.552-.6-.82-.9-.519-.585-.754-.855-.44-.5-.607-.693a1.506,1.506,0,0,1-.088.25,1.357,1.357,0,0,1-.143.222c.354.347.722.72,1.1,1.12s.743.8,1.107,1.212" transform="translate(-0.272 -1.66)" fill="#121212"/>
    <path id="Path_909" data-name="Path 909" d="M6.293,12.275l.649.488c.265.2.5.38.7.543s.394.323.582.482q.022-.042.058-.1c.03-.04.07-.094.124-.162s.126-.17.215-.286.211-.279.357-.475c.164-.22.3-.392.388-.516s.183-.229.252-.311a.5.5,0,0,1-.086-.042c-.028-.017-.07-.045-.12-.084a1.059,1.059,0,0,1-.116-.094c-.027-.026-.055-.052-.086-.087-.117.2-.238.4-.366.585s-.259.373-.4.556c-.2-.135-.4-.279-.608-.435-.1-.076-.2-.154-.306-.231l-.3-.236c.271-.357.558-.709.859-1.05a.893.893,0,0,0-.128-.065c-.031-.022-.06-.039-.085-.056s-.061-.051-.086-.075a1.509,1.509,0,0,1-.11-.112c-.13.188-.253.369-.373.542s-.254.36-.407.571c-.175-.133-.35-.264-.52-.391s-.337-.272-.5-.418c.025-.035.072-.093.138-.172s.14-.17.223-.268.173-.2.259-.305.174-.2.25-.291a.989.989,0,0,1-.106-.058c-.031-.019-.072-.046-.124-.085a.982.982,0,0,1-.185-.168c-.042.065-.127.2-.263.386s-.289.392-.467.629c-.107.14-.218.282-.33.418s-.222.273-.335.414c.216.144.433.288.642.439s.446.32.711.52" transform="translate(-0.63 -1.207)" fill="#121212"/>
    <path id="Path_910" data-name="Path 910" d="M10.041,8.774l2.058.684q.093-.1.191-.188l.2-.186c.07-.059.136-.12.2-.179s.134-.114.209-.171l-1.158-.3c-.39-.106-.77-.22-1.139-.344a1.31,1.31,0,0,0,.25-.749,1.038,1.038,0,0,0-.3-.69.944.944,0,0,0-.388-.27.932.932,0,0,0-.428-.057.843.843,0,0,0-.185.045.953.953,0,0,0-.2.087,2.324,2.324,0,0,0-.229.157c-.085.067-.185.152-.3.251-.148.136-.273.257-.369.359s-.183.179-.263.251S8.061,7.6,8,7.651l-.177.131q.275.274.546.554c.175.183.375.4.6.645l.544.6c.222.246.416.467.584.665s.326.39.477.584a1.917,1.917,0,0,1,.158-.156c.058-.052.126-.115.2-.18l.2-.181c.058-.051.117-.1.172-.14-.178-.172-.354-.35-.532-.534s-.379-.4-.6-.651L10,8.811ZM9.968,7.362a.892.892,0,0,1,.276.62.821.821,0,0,1-.31.558c-.015.012-.031.027-.049.044a.647.647,0,0,0-.056.036c-.364-.4-.722-.808-1.075-1.222a2.868,2.868,0,0,1,.328-.263.576.576,0,0,1,.283-.111.441.441,0,0,1,.281.061,1.34,1.34,0,0,1,.322.276" transform="translate(-0.997 -0.806)" fill="#121212"/>
    <path id="Path_911" data-name="Path 911" d="M14.02,4.305,14.1,4.26c-.032-.133-.058-.243-.079-.325s-.037-.185-.052-.281a1.337,1.337,0,0,0-.47.022,1.823,1.823,0,0,0-.526.216,1.579,1.579,0,0,0-.4.329,1.29,1.29,0,0,0-.245.425,1.214,1.214,0,0,0-.058.5,1.336,1.336,0,0,0,.181.53,1.1,1.1,0,0,0,.4.422,1.257,1.257,0,0,0,.467.15,2.255,2.255,0,0,0,.5.006c.168-.017.329-.024.481-.024a1.177,1.177,0,0,1,.411.05.522.522,0,0,1,.3.256.586.586,0,0,1,.065.459.691.691,0,0,1-.366.42.99.99,0,0,1-.305.119.819.819,0,0,1-.284,0,.759.759,0,0,1-.244-.093.848.848,0,0,1-.2-.173l-.1.057c.051.128.094.247.128.362s.066.241.1.382a1.058,1.058,0,0,0,.416-.047,2.359,2.359,0,0,0,1.053-.626,1.5,1.5,0,0,0,.3-.487,1.191,1.191,0,0,0,.067-.528,1.341,1.341,0,0,0-.175-.535,1.02,1.02,0,0,0-.4-.411,1.236,1.236,0,0,0-.473-.154,1.947,1.947,0,0,0-.509,0c-.171.016-.332.024-.489.026a1.577,1.577,0,0,1-.42-.047.525.525,0,0,1-.3-.25.5.5,0,0,1-.038-.413.633.633,0,0,1,.306-.366.723.723,0,0,1,.887.084" transform="translate(-1.563 -0.464)" fill="#121212"/>
    <path id="Path_912" data-name="Path 912" d="M16.5,4.106l.3.752c.124.307.232.581.322.826s.17.476.248.713a1.3,1.3,0,0,1,.2-.1c.074-.03.159-.062.251-.1s.174-.071.25-.1.143-.052.209-.072c-.109-.223-.214-.452-.317-.685s-.217-.51-.343-.817l-.3-.754C17.2,3.467,17.094,3.2,17,2.956s-.175-.489-.256-.736c-.061.034-.126.068-.2.106s-.155.069-.248.107-.177.069-.253.094-.147.044-.214.062c.112.233.221.468.324.7s.218.505.341.812" transform="translate(-2.019 -0.283)" fill="#121212"/>
    <path id="Path_913" data-name="Path 913" d="M19.25,3.033l.184.793c.072.32.136.61.187.863s.093.5.135.743a2.172,2.172,0,0,1,.212-.061c.078-.02.166-.038.262-.061.152-.035.332-.073.538-.117s.457-.1.747-.166a2.13,2.13,0,0,0,.743-.326,1.913,1.913,0,0,0,.544-.566,2.043,2.043,0,0,0,.284-.772,2.269,2.269,0,0,0-.04-.91,2.292,2.292,0,0,0-.373-.878,1.468,1.468,0,0,0-.6-.476,1.947,1.947,0,0,0-.781-.14,4.189,4.189,0,0,0-.931.118c-.257.059-.464.113-.62.161s-.3.083-.428.11c-.1.024-.185.042-.263.056s-.154.018-.222.026c.074.25.144.5.209.75s.136.53.21.854m1.077.722-.388-1.68c-.028-.116-.051-.22-.073-.314s-.031-.154-.036-.183l.257-.078c.086-.028.2-.057.34-.092A1.434,1.434,0,0,1,21,1.392a1.177,1.177,0,0,1,.491.215,1.375,1.375,0,0,1,.38.42,2.027,2.027,0,0,1,.25.626A2.092,2.092,0,0,1,22.051,4.1a1.343,1.343,0,0,1-.941.691c-.122.026-.222.048-.3.064s-.153.027-.214.036c-.006-.026-.022-.086-.046-.179s-.045-.2-.073-.308Z" transform="translate(-2.401 -0.122)" fill="#121212"/>
    <path id="Path_914" data-name="Path 914" d="M28.3,4.117c-.1,0-.188,0-.276.012s-.167.013-.25.024-.171.012-.257.022a2.1,2.1,0,0,0-.249.032c-.082-.188-.165-.381-.25-.579s-.175-.39-.267-.586c-.127.005-.255.014-.382.025s-.256.017-.382.028c-.1.01-.205.021-.309.033s-.207.019-.311.034c-.061.209-.117.418-.167.626s-.094.414-.133.612a.784.784,0,0,0-.143,0c-.044.005-.09.008-.137.012l-.144.013a1.1,1.1,0,0,0-.154.024c.04-.107.091-.256.154-.443s.133-.406.209-.645.154-.493.238-.763.175-.554.258-.833.173-.556.252-.828.161-.524.229-.757c.04.007.079.008.115.014a1.04,1.04,0,0,0,.114,0,.731.731,0,0,0,.112-.017L26.278.14c.156.325.325.675.5,1.049s.362.739.542,1.1.352.7.52,1.018.32.592.457.813M25.925,1.331c-.081.245-.158.489-.229.731s-.14.485-.206.734l1.092-.1c-.109-.234-.217-.463-.325-.686s-.214-.456-.332-.683" transform="translate(-3.122 -0.018)" fill="#121212"/>
    <path id="Path_915" data-name="Path 915" d="M29.786,1.68l-.058.813c-.021.329-.047.623-.072.881s-.056.5-.089.749a1.777,1.777,0,0,1,.224,0c.078,0,.168.011.267.02q.232.014.549.044c.21.019.465.04.763.058a2.1,2.1,0,0,0,.8-.092,1.934,1.934,0,0,0,.686-.383,2.036,2.036,0,0,0,.5-.657,2.28,2.28,0,0,0,.229-.882,2.26,2.26,0,0,0-.1-.948,1.408,1.408,0,0,0-.431-.628,1.89,1.89,0,0,0-.7-.365,4.339,4.339,0,0,0-.926-.16C31.16.117,30.947.11,30.783.11S30.472.1,30.341.09c-.1-.007-.188-.017-.27-.026S29.92.04,29.853.025c0,.262-.008.519-.017.777s-.027.547-.05.878M30.6,2.685l.12-1.719c.01-.119.016-.224.023-.321s.018-.158.018-.184c.092,0,.181,0,.271,0s.209,0,.352.012a1.368,1.368,0,0,1,.554.154,1.138,1.138,0,0,1,.408.346,1.4,1.4,0,0,1,.238.514,2,2,0,0,1,.057.669,2.09,2.09,0,0,1-.493,1.363,1.343,1.343,0,0,1-1.1.384c-.122-.011-.227-.019-.311-.031s-.155-.016-.214-.024c0-.029,0-.088.008-.185s.012-.2.022-.317Z" transform="translate(-3.769 -0.003)" fill="#121212"/>
    <path id="Path_916" data-name="Path 916" d="M40.146,5.978c-.09-.033-.177-.065-.26-.088s-.162-.045-.242-.07L39.4,5.751c-.081-.023-.162-.043-.245-.058-.007-.207-.016-.416-.024-.63s-.023-.429-.039-.645c-.12-.039-.244-.078-.366-.113s-.243-.076-.366-.111c-.1-.028-.2-.056-.3-.079s-.2-.056-.3-.079c-.133.172-.259.349-.38.524s-.236.351-.343.524a.632.632,0,0,0-.137-.051c-.041-.013-.086-.026-.131-.038s-.092-.029-.138-.04a1.415,1.415,0,0,0-.154-.033c.075-.085.175-.205.3-.359s.269-.329.426-.526.322-.4.5-.63.361-.453.539-.684.359-.455.53-.68.339-.434.483-.626c.038.018.074.036.106.054s.07.025.106.034a.7.7,0,0,0,.111.027c.038,0,.076.006.116.009.031.36.059.746.09,1.157s.074.82.112,1.222.08.775.124,1.133.085.67.133.924M38.931,2.525c-.165.2-.323.4-.476.6s-.305.4-.456.612l1.053.3c-.017-.259-.035-.51-.058-.757s-.036-.5-.063-.759" transform="translate(-4.65 -0.181)" fill="#121212"/>
    <path id="Path_917" data-name="Path 917" d="M43.023,4.018c-.151.263-.316.533-.491.814s-.334.539-.489.773-.277.436-.387.6a3.387,3.387,0,0,1-.2.282c.084.038.165.08.244.126.038.021.079.044.12.07a.8.8,0,0,1,.117.081c.019-.038.046-.092.077-.157s.079-.15.135-.255.12-.224.2-.373.185-.321.3-.528l.347-.6.177-.306c.062-.1.123-.2.184-.3q.471,1.951.821,3.809c.062.026.13.065.208.1s.14.09.205.136l.359-.623c.143-.248.279-.482.406-.7s.264-.439.4-.659.282-.453.438-.7.337-.527.536-.831a1.6,1.6,0,0,1-.25-.11,1.887,1.887,0,0,1-.218-.159,1.946,1.946,0,0,1-.1.211c-.048.1-.113.223-.2.361s-.161.292-.257.459-.186.331-.284.5L44.883,7q-.217-.961-.421-1.886t-.4-1.877a1.694,1.694,0,0,1-.249-.108,1.833,1.833,0,0,1-.218-.161c-.069.125-.147.272-.232.439s-.2.367-.337.606" transform="translate(-5.286 -0.379)" fill="#121212"/>
    <path id="Path_918" data-name="Path 918" d="M50.324,7.884c-.034-.024-.065-.044-.1-.064s-.057-.049-.084-.075a.944.944,0,0,1-.077-.086c-.02-.031-.04-.063-.064-.1-.224.1-.464.2-.728.315s-.523.225-.795.337-.537.228-.8.339l-.741.309c-.231.094-.441.181-.626.254s-.333.129-.441.168a1.5,1.5,0,0,1,.12.1c.033.037.068.068.1.1s.067.065.1.1a1.018,1.018,0,0,1,.094.109c.177-.1.362-.2.553-.29s.388-.187.588-.275c.077.07.151.14.224.216s.15.144.223.215c.092.091.18.181.268.274s.178.184.266.277c-.089.2-.183.393-.278.584s-.19.379-.284.56a2.456,2.456,0,0,1,.185.17c.064.063.123.124.183.182s.117.118.178.177.124.132.187.2c.08-.246.19-.537.328-.87s.288-.689.445-1.055.326-.742.495-1.119.333-.728.482-1.057M48.555,9.76l-.774-.774c.234-.111.466-.213.694-.312s.469-.2.71-.295c-.1.236-.205.468-.312.693s-.207.455-.318.688m1.4-2.543.233.229c.291.076.523.129.689.166s.3.061.394.072a.428.428,0,0,0,.193-.01.267.267,0,0,0,.1-.063.282.282,0,0,0,.08-.181.257.257,0,0,0-.09-.208.356.356,0,0,0-.106-.071.585.585,0,0,0-.215-.029,4.364,4.364,0,0,0-.457.017c-.2.015-.473.039-.821.076" transform="translate(-5.848 -0.908)" fill="#121212"/>
    <path id="Path_919" data-name="Path 919" d="M52.607,14.421l-.292.175c-.284.171-.537.322-.765.446s-.444.244-.665.358a1.824,1.824,0,0,1,.126.184l.136.232c.052.083.1.161.14.227a1.386,1.386,0,0,1,.1.2c.206-.142.414-.281.628-.419s.469-.3.754-.467l.7-.419c.285-.171.539-.318.763-.443s.455-.249.686-.37c-.041-.053-.089-.113-.134-.177s-.094-.14-.145-.227-.1-.162-.133-.233-.066-.14-.094-.2c-.213.147-.428.289-.644.428s-.457.287-.742.458c-.065-.1-.131-.2-.2-.315s-.16-.268-.271-.453-.205-.339-.281-.467-.133-.232-.181-.322c.284-.172.535-.32.751-.445s.452-.246.683-.362c-.042-.054-.086-.113-.134-.18s-.092-.14-.143-.225-.1-.163-.133-.233-.066-.14-.094-.2c-.215.148-.431.29-.649.43s-.465.293-.747.463l-.7.42c-.283.17-.538.319-.764.447s-.445.242-.666.355a1.527,1.527,0,0,1,.125.186c.042.067.087.142.14.227s.1.164.138.231.075.135.1.2q.306-.211.627-.418c.218-.14.469-.295.752-.467l.292-.175c.086.127.169.251.25.38s.161.257.238.386.154.262.226.4.149.262.223.393" transform="translate(-6.31 -1.398)" fill="#121212"/>
    <path id="Path_920" data-name="Path 920" d="M52.7,19.887a1.784,1.784,0,0,0,.813,1.128,2.089,2.089,0,0,0,1.564-.008c.249-.076.484-.146.7-.211s.434-.115.619-.163l.5-.129c.142-.033.257-.062.345-.078-.023-.048-.045-.094-.067-.139a1.353,1.353,0,0,1-.05-.139c-.014-.041-.024-.09-.036-.14s-.016-.107-.024-.163c-.26.1-.518.188-.779.278s-.519.169-.781.25-.527.153-.779.211a2.384,2.384,0,0,1-.691.075,1.1,1.1,0,0,1-.547-.153.819.819,0,0,1-.336-.484,1.769,1.769,0,0,1-.092-.509.735.735,0,0,1,.116-.429,1.3,1.3,0,0,1,.433-.371,4.134,4.134,0,0,1,.818-.332q.492-.149.971-.284t1.057-.247c-.032-.074-.063-.149-.094-.227s-.055-.157-.078-.232-.045-.157-.065-.236-.036-.163-.049-.242c-.093.035-.236.085-.424.148s-.44.139-.749.235c-.1.031-.2.059-.3.086l-.3.089c-.1.032-.217.065-.34.1s-.254.076-.407.124a1.683,1.683,0,0,0-.652.344,1.33,1.33,0,0,0-.349.511,1.55,1.55,0,0,0-.086.627,3.03,3.03,0,0,0,.131.71" transform="translate(-6.702 -2.157)" fill="#121212"/>
    <path id="Path_921" data-name="Path 921" d="M54.047,26.925c-.005-.1-.012-.189-.022-.276s-.019-.164-.031-.25-.02-.167-.031-.256a2.327,2.327,0,0,0-.044-.245l.571-.269c.194-.091.387-.188.581-.289-.012-.126-.026-.256-.043-.383s-.024-.252-.04-.379c-.013-.1-.027-.206-.044-.307s-.027-.206-.044-.306c-.211-.058-.421-.106-.632-.147s-.416-.078-.617-.113a.713.713,0,0,0-.007-.143c0-.042-.01-.089-.017-.136l-.016-.144a1.133,1.133,0,0,0-.032-.154c.108.035.259.082.451.14l.649.184c.243.068.5.136.775.213s.56.155.842.227.561.154.835.222.53.146.765.2c0,.043-.006.08-.01.116s0,.075.008.116.011.075.019.111.025.075.039.11c-.323.168-.666.349-1.031.536s-.726.389-1.081.58-.683.378-1,.555-.582.34-.8.484m2.7-2.465c-.25-.072-.5-.143-.741-.2s-.489-.123-.741-.181l.133,1.087c.231-.12.456-.232.675-.35s.448-.229.674-.352" transform="translate(-6.831 -2.949)" fill="#121212"/>
    <path id="Path_922" data-name="Path 922" d="M54.758,31.377l.049-.074a1.188,1.188,0,0,1-.185-.231,1.3,1.3,0,0,1-.144-.271,2.158,2.158,0,0,1-.09-.285,1.5,1.5,0,0,1-.03-.3,1.414,1.414,0,0,1,.1-.517,1.234,1.234,0,0,1,.3-.452,1.608,1.608,0,0,1,.531-.323,2.163,2.163,0,0,1,.79-.127,2.522,2.522,0,0,1,.821.119,1.731,1.731,0,0,1,.568.323,1.355,1.355,0,0,1,.33.438,1.246,1.246,0,0,1-.018,1.044,1.421,1.421,0,0,1-.408.469v.082c.106.01.206.024.306.044a1.933,1.933,0,0,1,.305.1,1.406,1.406,0,0,0,.113-.252,2.148,2.148,0,0,0,.09-.308,2.409,2.409,0,0,0,.066-.332,2.2,2.2,0,0,0,.024-.327,3.143,3.143,0,0,0-.126-.9,2,2,0,0,0-.4-.756,1.9,1.9,0,0,0-.707-.524,2.588,2.588,0,0,0-1.052-.192,2.031,2.031,0,0,0-.79.148,1.854,1.854,0,0,0-.634.43,2.1,2.1,0,0,0-.412.7,2.8,2.8,0,0,0-.145.933,2.705,2.705,0,0,0,.245,1.217,1.234,1.234,0,0,1,.252.051,2.587,2.587,0,0,1,.257.081" transform="translate(-6.885 -3.547)" fill="#121212"/>
    <path id="Path_923" data-name="Path 923" d="M1.429,39.106a.821.821,0,0,1,.052.155,1.348,1.348,0,0,1,.033.159q.974.075,1.955.174c.654.069,1.317.144,1.987.229a.844.844,0,0,1-.073-.169.765.765,0,0,1-.02-.184c-.125,0-.271-.009-.441-.015s-.352-.02-.549-.038-.4-.022-.619-.035-.423-.031-.633-.05-.406-.03-.6-.051-.366-.039-.524-.058c.237-.173.476-.34.716-.51s.482-.334.716-.5.466-.318.693-.467.454-.293.664-.423c-.018-.041-.038-.081-.054-.121a1.194,1.194,0,0,1-.038-.116c-.01-.038-.019-.076-.027-.12s-.009-.09-.013-.133c-.268.193-.554.4-.853.608s-.592.425-.882.626-.559.4-.821.579-.483.336-.669.462" transform="translate(-0.182 -4.696)" fill="#121212"/>
    <path id="Path_924" data-name="Path 924" d="M4.571,41.442l-.86.347q-.33.133-.655.252l-.64.229c.037.07.068.143.1.217a2.268,2.268,0,0,1,.081.229c.2-.093.408-.189.618-.282s.428-.185.647-.271l.86-.346c.219-.092.435-.174.648-.252s.437-.158.66-.236c-.023-.038-.045-.073-.065-.11a.837.837,0,0,1-.05-.1c-.015-.04-.027-.075-.039-.113s-.017-.079-.024-.12l-.642.286c-.2.091-.418.183-.639.271" transform="translate(-0.308 -5.213)" fill="#121212"/>
    <path id="Path_925" data-name="Path 925" d="M4.512,46.714l.032.054c.036-.017.087-.044.156-.084s.161-.092.261-.147.215-.12.328-.188.237-.133.352-.2.228-.125.333-.187.2-.112.284-.157.214-.111.367-.189.311-.156.472-.24.313-.154.455-.224.251-.119.324-.151a.651.651,0,0,1-.1-.124.635.635,0,0,1-.058-.16c-.267.168-.558.344-.872.52s-.627.355-.956.541l-.641.356c.071-.215.159-.466.267-.753s.226-.6.346-.919.25-.653.376-.981.25-.64.36-.926l-.037-.07c-.1.065-.264.156-.482.276s-.474.27-.774.435c-.1.061-.225.121-.357.2s-.273.137-.413.209-.282.145-.425.214-.273.137-.4.2-.223.109-.313.147a1.357,1.357,0,0,1-.185.079,1.26,1.26,0,0,1,.1.155,1.054,1.054,0,0,1,.072.154c.024-.016.07-.048.138-.086s.152-.094.246-.147.193-.12.3-.181l.321-.189.3-.174c.1-.052.18-.1.244-.134.255-.143.458-.252.608-.331s.267-.144.356-.188c-.227.61-.459,1.222-.694,1.84s-.465,1.2-.7,1.759" transform="translate(-0.41 -5.417)" fill="#121212"/>
    <path id="Path_926" data-name="Path 926" d="M7.961,50.608l.269-.174,0-.028c-.061-.012-.133-.023-.219-.039a1.652,1.652,0,0,1-.257-.074,1.558,1.558,0,0,1-.266-.131,1.009,1.009,0,0,1-.247-.21,1.414,1.414,0,0,1-.277-.477,1.156,1.156,0,0,1-.046-.528,1.524,1.524,0,0,1,.221-.566,2.64,2.64,0,0,1,.519-.592,2.563,2.563,0,0,1,.648-.425,1.465,1.465,0,0,1,.593-.139,1.121,1.121,0,0,1,.522.117,1.408,1.408,0,0,1,.43.339.9.9,0,0,1,.173.279,1.214,1.214,0,0,1,.08.278,1.6,1.6,0,0,1,.017.257,1.3,1.3,0,0,1-.019.2l.026.016c.05-.032.113-.069.189-.113a.806.806,0,0,1,.2-.086,2.51,2.51,0,0,0-.182-.475,2.243,2.243,0,0,0-.327-.493,2.129,2.129,0,0,0-.586-.476,1.785,1.785,0,0,0-.667-.192A1.8,1.8,0,0,0,8.048,47a2.427,2.427,0,0,0-.7.434,2.294,2.294,0,0,0-.53.637,1.8,1.8,0,0,0-.213.678,1.486,1.486,0,0,0,.093.668,2.021,2.021,0,0,0,.378.619,1.928,1.928,0,0,0,.252.242,2.6,2.6,0,0,0,.25.176,1.078,1.078,0,0,0,.219.113.588.588,0,0,0,.167.044" transform="translate(-0.841 -5.977)" fill="#121212"/>
    <path id="Path_927" data-name="Path 927" d="M10.642,50.235l-.6.71c-.153.18-.305.359-.461.529s-.3.339-.46.509q.183.136.348.276l.342.285c.116.1.228.191.338.285s.222.193.332.291A.545.545,0,0,1,10.561,53c.017-.02.034-.04.052-.064a.738.738,0,0,1,.068-.056,1.465,1.465,0,0,1-.242-.147c-.085-.065-.175-.127-.274-.2s-.185-.148-.281-.229-.18-.15-.262-.222c.041-.052.1-.133.186-.235s.195-.233.326-.387l.343-.411c.037-.044.067-.079.09-.109a.428.428,0,0,0,.072-.078c.046.04.106.091.178.158s.158.133.238.206.172.15.253.226.154.149.212.214a.8.8,0,0,1,.092-.136.879.879,0,0,1,.12-.116c-.061-.041-.124-.083-.191-.131s-.132-.1-.21-.158-.157-.12-.244-.189-.191-.154-.3-.243c.044-.056.108-.131.191-.236s.173-.206.263-.313.161-.192.232-.269.147-.155.222-.243c.124.1.226.195.309.273s.161.147.229.212.134.134.2.193.131.131.207.2a1.009,1.009,0,0,1,.209-.249c-.115-.085-.235-.173-.347-.26s-.226-.182-.339-.275-.222-.195-.332-.291-.214-.2-.321-.3c-.14.181-.283.365-.427.546s-.285.365-.438.544" transform="translate(-1.163 -6.266)" fill="#121212"/>
    <path id="Path_928" data-name="Path 928" d="M14.652,53.006l-.436.82c-.112.209-.227.413-.342.612s-.229.4-.341.59a1.426,1.426,0,0,1,.218.1,1.793,1.793,0,0,1,.206.119c.1-.2.194-.406.292-.614s.209-.412.32-.619L15,53.2c.113-.212.224-.413.337-.609s.235-.4.354-.6c-.04-.016-.079-.028-.118-.041a.9.9,0,0,1-.106-.05,1.05,1.05,0,0,1-.1-.062c-.031-.02-.065-.049-.1-.073-.1.213-.206.424-.308.628s-.2.413-.312.621" transform="translate(-1.725 -6.599)" fill="#121212"/>
    <path id="Path_929" data-name="Path 929" d="M18.127,57.069l.064.024c.014-.033.035-.091.062-.166s.063-.174.1-.288.084-.227.125-.353.091-.256.133-.385.089-.243.131-.355l.111-.3c.035-.1.086-.229.153-.388s.131-.32.2-.491.135-.319.2-.465.111-.254.145-.325a.813.813,0,0,1-.157-.03.606.606,0,0,1-.148-.083c-.092.305-.2.624-.319.965s-.237.681-.366,1.036l-.25.688c-.085-.208-.182-.456-.291-.743s-.22-.6-.342-.925l-.359-.982q-.179-.5-.337-.935l-.074-.03c-.036.118-.1.292-.181.525s-.181.515-.3.838c-.04.108-.087.237-.142.373s-.112.286-.172.433-.118.292-.181.44-.117.284-.169.409-.1.229-.141.317a1.883,1.883,0,0,1-.086.181,1.06,1.06,0,0,1,.174.051.913.913,0,0,1,.155.068c.01-.031.024-.082.047-.153s.055-.171.09-.272.072-.216.111-.336l.118-.35c.042-.116.08-.225.115-.332s.072-.194.1-.265l.241-.646c.061-.16.11-.282.148-.378q.343.919.684,1.844c.227.613.435,1.211.624,1.786" transform="translate(-1.979 -6.698)" fill="#121212"/>
    <path id="Path_930" data-name="Path 930" d="M22.492,55.763l-.146.913c-.037.236-.078.467-.124.691s-.086.448-.131.672a1.783,1.783,0,0,1,.235.024c.079.017.159.028.236.041s.154.024.232.04.157.031.236.041a1.839,1.839,0,0,0,.434.022,1.283,1.283,0,0,0,.424-.113.979.979,0,0,0,.342-.282,1.031,1.031,0,0,0,.189-.485.828.828,0,0,0-.145-.7,1.13,1.13,0,0,0-.64-.335v-.01a1.251,1.251,0,0,0,.636-.221.852.852,0,0,0,.324-.583.78.78,0,0,0-.022-.385.615.615,0,0,0-.187-.27.863.863,0,0,0-.3-.173,1.867,1.867,0,0,0-.385-.1,1.333,1.333,0,0,0-.26-.027c-.087-.006-.175-.017-.258-.03l-.257-.047-.252-.063c-.026.231-.054.456-.082.685s-.059.46-.1.695m.617.365-.263-.04.064-.4c.027-.172.058-.342.089-.505s.066-.334.1-.5a1.491,1.491,0,0,1,.159.006c.059,0,.129.01.215.024a1.353,1.353,0,0,1,.276.072.578.578,0,0,1,.236.136.5.5,0,0,1,.153.232.717.717,0,0,1,.018.353.8.8,0,0,1-.142.361.663.663,0,0,1-.245.2,1.009,1.009,0,0,1-.319.076,1.623,1.623,0,0,1-.339-.017m-.379.7.086-.542.217.032a2.737,2.737,0,0,1,.43.1.83.83,0,0,1,.32.174.487.487,0,0,1,.176.261.787.787,0,0,1,.019.383,1.058,1.058,0,0,1-.124.369.859.859,0,0,1-.215.26.736.736,0,0,1-.277.129.835.835,0,0,1-.305.014c-.086-.017-.172-.03-.255-.048s-.154-.041-.214-.055c.022-.183.044-.359.065-.54s.047-.357.076-.539" transform="translate(-2.817 -6.934)" fill="#121212"/>
    <path id="Path_931" data-name="Path 931" d="M29.08,56.842a2.56,2.56,0,0,1-.131.771,1.578,1.578,0,0,1-.308.531,1.147,1.147,0,0,1-.44.3,1.413,1.413,0,0,1-.537.083,1.355,1.355,0,0,1-.53-.123,1.138,1.138,0,0,1-.419-.328,1.5,1.5,0,0,1-.266-.546,2.67,2.67,0,0,1-.076-.777,2.594,2.594,0,0,1,.131-.77,1.521,1.521,0,0,1,.3-.529,1.2,1.2,0,0,1,.441-.3,1.388,1.388,0,0,1,.537-.082,1.406,1.406,0,0,1,.53.12,1.13,1.13,0,0,1,.418.334,1.482,1.482,0,0,1,.271.55,2.574,2.574,0,0,1,.076.773m-3.186-.109a2.389,2.389,0,0,0,.1.821,1.7,1.7,0,0,0,.358.614,1.52,1.52,0,0,0,.569.4,2.253,2.253,0,0,0,.734.142,2.171,2.171,0,0,0,.748-.092A1.508,1.508,0,0,0,29,58.259a1.62,1.62,0,0,0,.4-.589,2.485,2.485,0,0,0,.057-1.629,1.646,1.646,0,0,0-.355-.62,1.628,1.628,0,0,0-.564-.4,2.153,2.153,0,0,0-.74-.153,1.924,1.924,0,0,0-.743.1,1.589,1.589,0,0,0-.594.354,1.758,1.758,0,0,0-.4.6,2.352,2.352,0,0,0-.161.808" transform="translate(-3.301 -6.995)" fill="#121212"/>
    <path id="Path_932" data-name="Path 932" d="M33.976,58.467l.068,0c0-.04-.01-.1-.017-.18s-.018-.186-.031-.3-.022-.243-.037-.375-.028-.269-.041-.4-.021-.263-.033-.383-.021-.235-.029-.324c-.009-.106-.018-.243-.026-.414s-.018-.349-.027-.53-.012-.347-.018-.5-.008-.277-.008-.354a.626.626,0,0,1-.154.038.613.613,0,0,1-.168-.01c.044.31.08.647.117,1.006s.073.718.1,1.093l.066.729c-.164-.149-.359-.333-.581-.549s-.452-.45-.7-.692-.493-.491-.744-.739-.482-.487-.7-.707l-.078,0c.017.122.037.306.058.551s.051.546.081.884c.011.122.023.258.032.408s.017.3.025.461.017.317.023.477.011.3.018.436.006.252.005.347,0,.164,0,.2a1.292,1.292,0,0,1,.178-.028,1.647,1.647,0,0,1,.172,0c-.005-.029-.012-.081-.023-.161s-.023-.175-.034-.284-.028-.225-.041-.347-.028-.249-.042-.37-.024-.236-.037-.35-.017-.2-.023-.278c-.026-.29-.044-.518-.056-.688s-.022-.3-.026-.4q.7.683,1.4,1.379c.466.464.906.914,1.324,1.357" transform="translate(-3.945 -6.974)" fill="#121212"/>
    <path id="Path_933" data-name="Path 933" d="M38.61,55.63a2.691,2.691,0,0,1,.074.778,1.49,1.49,0,0,1-.161.592,1.126,1.126,0,0,1-.349.4,1.4,1.4,0,0,1-.5.218,1.331,1.331,0,0,1-.543.021,1.1,1.1,0,0,1-.49-.212,1.487,1.487,0,0,1-.4-.459,2.951,2.951,0,0,1-.347-1.5,1.511,1.511,0,0,1,.156-.592,1.126,1.126,0,0,1,.347-.406,1.4,1.4,0,0,1,.5-.222,1.383,1.383,0,0,1,.544-.017,1.051,1.051,0,0,1,.491.212,1.427,1.427,0,0,1,.4.459,2.559,2.559,0,0,1,.274.726m-3.105.716a2.462,2.462,0,0,0,.311.771,1.786,1.786,0,0,0,.5.5,1.539,1.539,0,0,0,.651.229,2.155,2.155,0,0,0,.747-.051,2.191,2.191,0,0,0,.7-.282,1.517,1.517,0,0,0,.48-.491,1.672,1.672,0,0,0,.23-.671,2.315,2.315,0,0,0-.051-.833,2.19,2.19,0,0,0-.316-.756,1.624,1.624,0,0,0-.5-.512,1.592,1.592,0,0,0-.647-.237,2.106,2.106,0,0,0-.755.04,2.13,2.13,0,0,0-.692.291,1.653,1.653,0,0,0-.483.5,1.8,1.8,0,0,0-.231.674,2.355,2.355,0,0,0,.056.825" transform="translate(-4.518 -6.884)" fill="#121212"/>
    <path id="Path_934" data-name="Path 934" d="M41.788,52.3l-.072.041c.115.262.236.544.359.84s.243.6.366.9.24.612.357.917.228.6.332.868a1.52,1.52,0,0,1,.146-.092,1.394,1.394,0,0,1,.154-.072c-.07-.127-.151-.291-.245-.495s-.195-.422-.3-.654-.208-.473-.31-.71-.2-.469-.284-.674l.007-.007c.42.311.832.618,1.239.914s.808.586,1.2.889l.038-.024q-.1-.781-.139-1.523c-.026-.5-.052-1-.075-1.508l.009-.005c.273.387.532.767.782,1.139s.506.763.769,1.165c.032-.024.062-.045.093-.065s.07-.037.1-.054.067-.037.1-.058a.627.627,0,0,1,.106-.049q-.27-.357-.53-.735c-.177-.249-.355-.5-.532-.755s-.362-.521-.547-.784-.373-.545-.572-.828l-.054.031c.008.182.018.381.029.6s.018.427.028.648.025.435.038.649.023.413.031.594.017.348.027.489.012.248.016.323c-.466-.323-.917-.633-1.352-.944s-.873-.633-1.317-.969" transform="translate(-5.319 -6.488)" fill="#121212"/>
    <path id="Path_935" data-name="Path 935" d="M50.516,50.882a.507.507,0,0,0-.106.079c-.03.024-.06.055-.1.086l-.1.088a.555.555,0,0,0-.087.092c-.072-.044-.163-.1-.268-.161s-.222-.123-.345-.182-.242-.132-.364-.193-.244-.13-.355-.189c-.08.069-.161.14-.24.209s-.166.14-.245.212-.147.137-.217.2-.145.133-.219.206c.109.276.219.537.326.786s.2.44.277.592a1.214,1.214,0,0,0-.143.11,1.734,1.734,0,0,0-.127.131q-.338-.965-.68-1.913t-.707-1.915l.07-.06c.2.1.411.212.644.332s.461.239.7.357.471.242.707.361l.654.33c.2.1.385.189.542.268s.289.13.378.17m-2.734.2c.063-.055.127-.113.2-.175s.136-.113.2-.173.136-.118.2-.181.131-.129.2-.19l-1.319-.654Z" transform="translate(-5.97 -6.255)" fill="#121212"/>
    <path id="Path_936" data-name="Path 936" d="M49.788,48.189l.732.571c.188.143.367.294.54.442s.353.294.524.441c.091-.129.181-.251.268-.365s.184-.236.28-.359.185-.234.277-.355.188-.234.286-.347a.574.574,0,0,1-.128-.068.74.74,0,0,1-.112-.118,6.705,6.705,0,0,1-.372.577c-.129.169-.263.347-.407.529-.209-.161-.444-.338-.707-.54s-.577-.443-.934-.722c-.188-.147-.367-.295-.543-.437l-.535-.455c-.019.036-.039.078-.058.111l-.067.1c-.024.024-.05.058-.079.086s-.058.054-.092.084c.2.139.384.276.57.413s.37.27.556.415" transform="translate(-6.204 -5.99)" fill="#121212"/>
    <path id="Path_937" data-name="Path 937" d="M53.214,43.249c.1.055.2.108.32.177a3.319,3.319,0,0,1,.337.214,1.982,1.982,0,0,1,.291.266,1.094,1.094,0,0,1,.2.313.873.873,0,0,1,.057.377,1.03,1.03,0,0,1-.136.436,1.31,1.31,0,0,1-.278.374.858.858,0,0,1-.32.176,1.059,1.059,0,0,1-.352.031,1.961,1.961,0,0,1-.357-.09,2.436,2.436,0,0,1-.354-.145l-.341-.176c-.178-.093-.347-.188-.511-.277s-.316-.178-.456-.259-.262-.154-.372-.218-.2-.123-.266-.164c-.01.033-.019.068-.031.1s-.027.06-.044.1-.039.071-.065.108-.053.072-.079.1c.146.071.324.156.534.261s.448.226.714.37c.121.064.237.129.349.2s.243.14.391.219a1.69,1.69,0,0,0,1.181.25,1.391,1.391,0,0,0,.825-.77,1.6,1.6,0,0,0,.185-.564,1.11,1.11,0,0,0-.063-.525,1.327,1.327,0,0,0-.3-.467,2.087,2.087,0,0,0-.523-.4c-.173-.1-.35-.195-.53-.3s-.363-.2-.535-.305-.335-.194-.483-.282l-.386-.24a.442.442,0,0,1-.045.141.674.674,0,0,1-.051.086c-.022.024-.043.051-.065.077.1.041.27.125.515.25s.594.308,1.046.55" transform="translate(-6.433 -5.373)" fill="#121212"/>
    <path id="Path_938" data-name="Path 938" d="M52.533,40.251l-.026.079c.269.111.55.227.847.357s.586.258.888.4.6.27.893.41.577.271.843.4a1.544,1.544,0,0,1,.039-.168c.018-.057.039-.112.059-.159-.135-.042-.308-.1-.517-.184s-.434-.17-.669-.268l-.715-.293q-.364-.16-.673-.288l0-.01q.775-.1,1.522-.207c.5-.07.99-.135,1.481-.189l.012-.044q-.615-.493-1.16-1t-1.1-1.031l0-.01c.462.091.913.18,1.352.276s.9.2,1.362.307A.7.7,0,0,1,57,38.507c.011-.038.024-.073.035-.113s.022-.073.032-.107a.619.619,0,0,1,.045-.11c-.3-.046-.594-.1-.893-.163s-.6-.115-.911-.174-.62-.123-.935-.184-.648-.133-.986-.2l-.019.063c.135.126.278.263.432.412s.312.295.473.441.321.3.479.443.3.28.435.4.255.24.36.34l.237.22c-.558.089-1.1.176-1.632.258s-1.066.149-1.62.215" transform="translate(-6.694 -4.775)" fill="#121212"/>
    <path id="Path_939" data-name="Path 939" d="M60.162,35.361V33.569h.26l.621,1.562.621-1.562h.259v1.792h-.168V33.778l-.633,1.583h-.16l-.631-1.583v1.583Zm2.228-1.614v1.614h-.174V33.569h.478a.851.851,0,0,1,.257.028.4.4,0,0,1,.176.074.547.547,0,0,1,.172.2.59.59,0,0,1,.06.263.559.559,0,0,1-.122.36.417.417,0,0,1-.312.164l.435.7h-.208l-.534-.863h.171a.373.373,0,0,0,.276-.1.321.321,0,0,0,.108-.253.43.43,0,0,0-.033-.171.367.367,0,0,0-.1-.136.375.375,0,0,0-.127-.068,1.056,1.056,0,0,0-.265-.021Z" transform="translate(-7.67 -4.28)" fill="#121212"/>
    <path id="Path_940" data-name="Path 940" d="M97.144,14.4c.038,1.85.193,3.657.193,5.506v1.721c0,1.635-.038,3.268-.038,4.9,0,1.806-.078,3.571-.078,5.376,0,.729-.116,1.507-.116,2.238.93-.044,1.86-.215,2.789-.215s1.86.17,2.79.215c-.041-3.227-.2-6.451-.2-9.68,0-2.707-.194-7.74,3.372-7.74,3.329,0,3.173,4.388,3.173,6.97,0,1.071-.037,2.149-.037,3.223-.039,1.677-.078,3.313-.194,4.99-.038.729-.116,1.507-.154,2.238.889-.044,1.742-.215,2.633-.215,1.044,0,2.052.128,3.1.215,0-2.367-.039-4.773-.039-7.143,0-1.762.039-3.481.039-5.244,0-2.2.117-4.561-1.278-6.281a5.878,5.878,0,0,0-4.842-2.408c-2.4,0-4.417,1.59-5.889,3.612l.115-3.14a24.824,24.824,0,0,1-2.516.174c-.968,0-1.9-.088-2.866-.174Z" transform="translate(-12.38 -1.666)" fill="#121212"/>
    <path id="Path_941" data-name="Path 941" d="M131.368,5.706c.425-.3.811-.6,1.238-.9.463-.645.736-.818.736-1.679a2.082,2.082,0,0,0-.464-1.374,1.927,1.927,0,0,0-1.24-.517,1.823,1.823,0,0,0-1.319.345,4.307,4.307,0,0,0-1.238,1.2l-4.96,6.408h2.132ZM120.522,17.1c.117-.174.31-.345.422-.517a6.326,6.326,0,0,1,4.3-1.935,3.659,3.659,0,0,1,3.6,3.568,2.031,2.031,0,0,1-.5,1.639,8.612,8.612,0,0,1-2.829,1.116,15.425,15.425,0,0,0-4.763,1.808,5.647,5.647,0,0,0-2.324,4.732c0,3.7,2.364,5.631,5.539,5.631a5.637,5.637,0,0,0,4.957-3.092A4.057,4.057,0,0,0,132.76,33.1a7.364,7.364,0,0,0,1.629-.259,10.53,10.53,0,0,0,1.859-.858v-.433c0-1.116-.039-.3-1.32-.731A2.523,2.523,0,0,1,134,29.017c-.038-.818-.038-1.636-.038-2.451,0-2.107.116-4.172.116-6.28,0-.945-.037-1.937-.037-2.881-.079-4.26-3.874-5.766-7.128-5.766a10.555,10.555,0,0,0-7.162,2.884l.5,2.581Zm4.568,6.322a8.9,8.9,0,0,1,2.286-1.119c.5-.216,1.047-.473,1.549-.731-.076,1.374-.076,2.754-.076,4.129,0,2.152-.5,4.514-2.867,4.514-1.666,0-2.13-1.676-2.13-3.267a4.415,4.415,0,0,1,1.238-3.527" transform="translate(-15.099 -0.157)" fill="#121212"/>
    <path id="Path_942" data-name="Path 942" d="M145.669,0a13.514,13.514,0,0,1-2.944.216A15.684,15.684,0,0,1,139.857,0c.2,4.691.311,9.378.311,14.023,0,1.677-.039,3.355-.039,4.987l-.154,10.708c0,.9-.079,1.808-.117,2.756.929-.045,1.858-.216,2.788-.216s1.863.17,2.79.216c-.038-3.227-.192-6.45-.192-9.68,0-2.749-.194-7.74,3.368-7.74a3.233,3.233,0,0,1,2.906,2.58,31.986,31.986,0,0,1,.27,4.345c0,1.246,0,2.537-.078,3.786l-.114,3.953c-.039.9-.118,1.851-.2,2.756.931-.045,1.9-.216,2.829-.216.968,0,1.935.128,2.9.216,0-.775-.038-1.509-.038-2.28V18.882c0-2.108-.155-3.913-1.588-5.46a5.885,5.885,0,0,0-4.532-2.024c-2.091,0-4.379,1.721-5.732,3.4l.076-4.648Z" transform="translate(-17.831 0)" fill="#121212"/>
    <path id="Path_943" data-name="Path 943" d="M174.271,34.209a23.932,23.932,0,0,1,2.479-.215c.968,0,1.935.169,2.9.215l-.038-.86c-.115-1.937-.194-3.872-.194-5.766V25.388c0-2.279.039-4.557.079-6.881,0-1.632.038-3.268.154-4.9-.927.085-1.858.174-2.789.174s-1.86-.089-2.788-.174c.039,3.226.194,6.452.194,9.678,0,2.709.154,7.74-3.371,7.74a2.953,2.953,0,0,1-2.748-2.235,10.977,10.977,0,0,1-.428-3.569c0-3.871.041-7.742.388-11.613-.891.085-1.742.174-2.635.174-1.045,0-2.051-.089-3.1-.174,0,.777.04,1.507.04,2.28,0,3.142-.04,6.236-.04,9.378,0,2.147-.193,4.816,1.009,6.667a6.007,6.007,0,0,0,5.188,2.666c2.712,0,4.066-1.377,5.812-3.528Z" transform="translate(-20.701 -1.735)" fill="#121212"/>
    <path id="Path_944" data-name="Path 944" d="M185.884,18.625c.117-.174.31-.345.426-.517a6.316,6.316,0,0,1,4.3-1.936,3.66,3.66,0,0,1,3.6,3.569,2.018,2.018,0,0,1-.505,1.638,8.556,8.556,0,0,1-2.828,1.117,15.463,15.463,0,0,0-4.764,1.808,5.652,5.652,0,0,0-2.324,4.732c0,3.7,2.365,5.631,5.54,5.631a5.643,5.643,0,0,0,4.959-3.091,4.057,4.057,0,0,0,3.834,3.05,7.252,7.252,0,0,0,1.627-.26,10.412,10.412,0,0,0,1.859-.857v-.433c0-1.116-.037-.3-1.317-.73a2.525,2.525,0,0,1-.931-1.808c-.037-.818-.037-1.636-.037-2.45,0-2.107.116-4.172.116-6.281,0-.943-.038-1.935-.038-2.88-.078-4.26-3.875-5.766-7.127-5.766a10.569,10.569,0,0,0-7.168,2.885l.5,2.581Zm4.57,6.322a8.912,8.912,0,0,1,2.285-1.119c.505-.216,1.048-.473,1.55-.732-.078,1.376-.078,2.755-.078,4.13,0,2.152-.505,4.513-2.867,4.513-1.666,0-2.131-1.674-2.131-3.266a4.412,4.412,0,0,1,1.24-3.526" transform="translate(-23.432 -1.678)" fill="#121212"/>
    <path id="Path_945" data-name="Path 945" d="M220.346,15.043a11.861,11.861,0,0,0-6.665-1.979c-6.08,0-10.188,4.343-10.188,11.138a11.142,11.142,0,0,0,2.793,7.7c1.894,2.109,4.761,2.71,7.358,2.71,1.4,0,4.144-.558,5.232-1.634l.927-2.538-.66-.6a5.441,5.441,0,0,1-4.025,2.021,4.875,4.875,0,0,1-4.5-2.369c-1.161-1.847-1.278-3.869-1.278-6.063,0-3.181,1.009-8.257,4.65-8.257,2.286,0,3.68,1.935,3.951,4.3h.933Z" transform="translate(-25.944 -1.666)" fill="#121212"/>
    <path id="Path_946" data-name="Path 946" d="M82.784,21.617c-1.12-3.47-2.2-6.852-3.433-10.193-1.312,3.341-2.509,6.723-3.629,10.193ZM93.015,32.922c-1.235-.083-2.317-.212-3.4-.212s-2.2.129-3.279.212c-.811-2.912-1.7-5.865-2.663-8.777-1.661-.044-3.284-.086-4.942-.086-1.349,0-2.665.042-4.015.086a91.49,91.49,0,0,0-2.625,8.777,13.516,13.516,0,0,0-1.815-.212,17.981,17.981,0,0,0-1.929.212c1.892-4.753,7.68-20,11-29.762a8.485,8.485,0,0,0,1.466.213,8.427,8.427,0,0,0,1.465-.213c3.283,9.763,7.8,22.785,10.734,29.762" transform="translate(-8.714 -0.403)" fill="#121212"/>
    <path id="Path_947" data-name="Path 947" d="M127.423,46.611c-1.142,2.58-2.24,5.18-3.288,7.819-.491,1.25-.633,1.747-.825,2.36a1.107,1.107,0,0,0-.222-.038.973.973,0,0,0-.208.038c-.285-.811-.459-1.308-.745-2-1.112-2.68-2.383-5.716-3.431-8-.38,2.978-.667,8.216-.652,10a1.825,1.825,0,0,0-.6-.117,3.194,3.194,0,0,0-.763.117c.16-.931,1.271-9.466,1.637-13.811a1.108,1.108,0,0,0,.269.039,2.113,2.113,0,0,0,.318-.039c.461,1.31,3.573,8.653,4.591,10.7,2.556-5.934,2.84-6.587,3.777-8.81.382-.933.462-1.132.73-1.886a1.6,1.6,0,0,0,.288.039,2.213,2.213,0,0,0,.3-.039c.365,4.188.888,10.082,1.3,13.277a3.807,3.807,0,0,0,.1.534,4.394,4.394,0,0,0-.89-.117,4.034,4.034,0,0,0-.982.117c-.016-2.121-.653-9.643-.7-10.18" transform="translate(-14.877 -5.48)" fill="#121212"/>
    <path id="Path_948" data-name="Path 948" d="M135.79,46.112l2.127-2.639c.51-.635.573-.714.826-.714a.646.646,0,0,1,.54.7.718.718,0,0,1-.3.6l-2.637,2.063Zm3.409,5c0-.655,0-3.3-1.9-3.3-1.383,0-2.05,1.31-2.193,3.3Zm-4.114.833a6.318,6.318,0,0,0,.429,2.6,2.328,2.328,0,0,0,2.224,1.548,2.894,2.894,0,0,0,2.524-1.609l.191.061a8.478,8.478,0,0,0-.113,1.19,3.638,3.638,0,0,1-2.953,1.29c-2.412,0-3.89-1.9-3.89-4.961,0-2.739,1.208-5.041,3.811-5.041,3.542,0,3.494,3.851,3.479,4.923Z" transform="translate(-17.02 -5.452)" fill="#121212"/>
    <path id="Path_949" data-name="Path 949" d="M150.574,57.394a4.445,4.445,0,0,0-.969-.118,6.12,6.12,0,0,0-.984.118c-.6-1.328-1.286-2.579-2-3.829-.777,1.369-1.7,3.135-2.047,3.829a2.04,2.04,0,0,0-.7-.118,1.856,1.856,0,0,0-.681.118,50.429,50.429,0,0,0,3.049-4.6c-.825-1.449-2.239-3.711-3.1-5.08a5.923,5.923,0,0,0,1.128.119,3.475,3.475,0,0,0,.953-.119,28.849,28.849,0,0,0,1.906,3.671c.414-.734,1.319-2.32,1.954-3.671a1.34,1.34,0,0,0,.635.119,2.84,2.84,0,0,0,.763-.119c-.222.3-.3.4-.747,1.033-1.1,1.606-1.224,1.784-2.207,3.352.777,1.25,2.255,3.87,3.049,5.3" transform="translate(-18.249 -6.083)" fill="#121212"/>
    <path id="Path_950" data-name="Path 950" d="M153.644,47.168a2.048,2.048,0,0,0,.777.119,2.407,2.407,0,0,0,.827-.119c-.048,1.092-.1,1.983-.1,5.218,0,.914.015,1.25.11,4.385a1.846,1.846,0,0,0-.777-.117,2.109,2.109,0,0,0-.825.117c.063-1.507.112-3.492.112-5.04,0-2.262-.065-3.533-.128-4.563m.842-2.184a1.106,1.106,0,1,1,.873-1.072.991.991,0,0,1-.873,1.072" transform="translate(-19.586 -5.459)" fill="#121212"/>
    <path id="Path_951" data-name="Path 951" d="M164.675,55.714a5.133,5.133,0,0,0-.174,1.151,3.713,3.713,0,0,1-2.35.775c-3.018,0-4.209-2.481-4.209-5,0-3.037,1.572-5.04,4.193-5.04a4.326,4.326,0,0,1,2.62.793,8.816,8.816,0,0,0-.35,1.687h-.191c-.46-1.469-1.365-1.648-1.938-1.648-1.762,0-2.683,1.569-2.683,4.049,0,3.651,1.858,4.246,2.779,4.246a2.778,2.778,0,0,0,2.16-1.073Z" transform="translate(-20.137 -6.069)" fill="#121212"/>
    <path id="Path_952" data-name="Path 952" d="M168.7,52.582c0,2.758.968,4.285,2.43,4.285,1.523,0,2.526-1.646,2.526-4.267,0-1.548-.381-4.186-2.447-4.186-2.509,0-2.509,3.573-2.509,4.168m6.574-.06c0,3.155-1.746,5.139-4.161,5.139-1.684,0-4.033-.951-4.033-5.02,0-3.1,1.651-5.02,4.033-5.02,3.018,0,4.161,2.479,4.161,4.9" transform="translate(-21.302 -6.071)" fill="#121212"/>
  </g>
</svg>
