<svg xmlns="http://www.w3.org/2000/svg" xmlns:xlink="http://www.w3.org/1999/xlink" width="231.565" height="22.662" viewBox="0 0 231.565 22.662">
  <defs>
    <clipPath id="clip-path">
      <path id="Path_102" data-name="Path 102" d="M43.494,29.863A11.331,11.331,0,1,0,54.881,41.194,11.359,11.359,0,0,0,43.494,29.863Z" transform="translate(-32.107 -29.863)" fill="none"/>
    </clipPath>
  </defs>
  <g id="Group_4226" data-name="Group 4226" transform="translate(2389.028 -2820.487)">
    <g id="Group_62" data-name="Group 62" transform="translate(-2362.432 2822.773)">
      <path id="Path_88" data-name="Path 88" d="M638.5,40.408l2.526,7.7h-5.114l2.476-7.7ZM634.15,53.792l1.664-5.236h5.4l2.1,6.234-1.886.194v.323h8.34v-.323L648.6,54.8,641.183,36.3l-2.517,1.721-5.132,15.767-2.886,1.192v.323h6.387v-.323Z" transform="translate(-444.8 -36.303)" fill="#fff"/>
      <path id="Path_89" data-name="Path 89" d="M158.233,55.07V37.208l1.619-.134v-.429H152.3v.429l1.619.134V54.936l-1.619.135v.46h14.3l.27-4.655h-.27l-3.1,4.061Z" transform="translate(-136.233 -36.523)" fill="#fff"/>
      <path id="Path_90" data-name="Path 90" d="M219.945,37.074l4.961.134,2.968,4.061h.269l-.134-4.624H213.978v.429l1.619.134V54.936l-1.619.134v.46h14.3l.27-4.654h-.27l-3.1,4.061-5.231.134V46.337l3.747.134,1.484,2.986h.27V42.551h-.27l-1.484,3.122-3.747.134Z" transform="translate(-176.021 -36.523)" fill="#fff"/>
      <path id="Path_91" data-name="Path 91" d="M530.613,55.039v.491H538.1v-.491l-1.6-.2V37.275l1.6-.2v-.426h-7.483v.426l1.6.2V54.834Z" transform="translate(-380.27 -36.523)" fill="#fff"/>
      <path id="Path_92" data-name="Path 92" d="M113,37.074l4.961.134,2.969,4.061h.27l-.135-4.624H107.038v.429l1.619.134V54.936l-1.619.134v.46h14.3l.27-4.654h-.27l-3.1,4.061L113,55.07V46.337l3.748.134,1.484,2.986h.27V42.551h-.27l-1.484,3.122L113,45.807Z" transform="translate(-107.038 -36.523)" fill="#fff"/>
      <g id="Group_59" data-name="Group 59" transform="translate(53.235 0.016)">
        <path id="Path_93" data-name="Path 93" d="M308.734,45.889c0-6.057,1.588-9.087,5.028-9.087s5.029,3.031,5.029,9.087-1.588,9.088-5.029,9.088-5.028-3.03-5.028-9.088m-4.5,0a9.527,9.527,0,1,0,9.527-9.539,9.546,9.546,0,0,0-9.527,9.539" transform="translate(-287.477 -36.349)" fill="#fff"/>
        <path id="Path_94" data-name="Path 94" d="M272.371,53.788l.265-4.476h-.265l-1.852,3.09c-.529.948-1.985,2.575-3.7,2.575-3.705,0-5.293-3.031-5.293-9.089s1.853-9.087,5.293-9.087c1.72,0,3.044,1.626,3.573,2.574l1.853,3.09h.264l-.132-4.476a12.508,12.508,0,0,0-6.086-1.639c-5.558,0-9.263,4.009-9.263,9.539s3.705,9.539,9.263,9.539a12.5,12.5,0,0,0,6.086-1.639" transform="translate(-257.022 -36.348)" fill="#fff"/>
      </g>
      <path id="Path_95" data-name="Path 95" d="M372.7,48.266l-7.98-11.621h-6.7v.4l2.851.134V54l-2.851,1.2v.326h6.427V55.2L361.472,54l-.107-14.4h.172l11.22,16h.632V38.141l2.851-1.2v-.267h-6.427v.267l2.984,1.2.08,10.125Z" transform="translate(-268.943 -36.523)" fill="#fff"/>
      <g id="Group_60" data-name="Group 60" transform="translate(107.549 0.017)">
        <path id="Path_96" data-name="Path 96" d="M414.544,45.889c0-6.057,1.588-9.087,5.029-9.087s5.027,3.031,5.027,9.087-1.588,9.088-5.027,9.088-5.029-3.03-5.029-9.088m-4.5,0a9.527,9.527,0,1,0,9.527-9.539,9.546,9.546,0,0,0-9.527,9.539" transform="translate(-410.046 -36.35)" fill="#fff"/>
      </g>
      <path id="Path_97" data-name="Path 97" d="M476.765,48.507l-5.087-11.886h-7.1v.427l2.85.2V53.979l-2.85,1.2V55.5h6.426v-.326l-2.984-1.2-.134-14.4h.172l6.7,15.854h.6l5.089-16.92h.2V54.843l-1.606.276v.4h7.5v-.4l-1.607-.276V37.181l1.607-.2v-.356h-5.987l-3.615,11.886Z" transform="translate(-337.676 -36.508)" fill="#fff"/>
      <g id="Group_61" data-name="Group 61" transform="translate(159.409 0.019)">
        <path id="Path_98" data-name="Path 98" d="M557.083,53.791A9.548,9.548,0,0,0,562.2,55.4c3.551,0,6.678-1.874,6.678-5.831,0-3.429-3.048-5.142-5.7-6.2-1.908-.765-3.71-1.715-3.71-3.693,0-2.5,2.384-2.9,3.259-2.9,1.776,0,3,1.031,4.161,3.563.265.58.53,1.134.8,1.714h.264l-.133-5.538h-.265l-.265,1.108a9.242,9.242,0,0,0-4.584-1.269c-3.631,0-6.546,1.928-6.546,5.3,0,3.218,2.7,4.668,5.379,5.8,1.988.844,4.029,1.978,4.029,4.22a3.067,3.067,0,0,1-3.366,3.3c-2.2,0-3.658-1.347-4.718-3.826-.264-.606-.53-1.239-.8-1.846h-.264l.131,5.934h.266Z" transform="translate(-556.156 -36.357)" fill="#fff"/>
      </g>
      <path id="Path_99" data-name="Path 99" d="M594.7,41.194h.267l2.945-3.944,2.142-.133V54.925l-1.606.2v.384h7.5V55.13l-1.606-.2V37.117l2.141.133,2.944,3.944h.268l-.133-4.558H594.832Z" transform="translate(-421.61 -36.518)" fill="#fff"/>
    </g>
    <g id="Group_66" data-name="Group 66" transform="translate(-2389.028 2820.487)">
      <g id="Group_63" data-name="Group 63">
        <path id="Path_100" data-name="Path 100" d="M43.493,52.525A11.331,11.331,0,1,0,32.106,41.194,11.359,11.359,0,0,0,43.493,52.525" transform="translate(-32.106 -29.863)" fill="none"/>
      </g>
      <g id="Group_65" data-name="Group 65" transform="translate(0)">
        <g id="Group_64" data-name="Group 64" clip-path="url(#clip-path)">
          <path id="Path_101" data-name="Path 101" d="M54.984,41.718v0a.068.068,0,0,0-.136-.007h0A10.842,10.842,0,0,1,46.975,49.4c-5.844,1.44-11.764-3.421-12.867-7.8a3.464,3.464,0,0,1-.073-1.633c.012.087.026.18.047.3a6.857,6.857,0,0,0,1.656,3.33c2.945,3.341,8.858,4.364,13.121,2.027,4.2-2.3,5.165-6.938,2.144-10.358a9.2,9.2,0,0,0-2.786-2.108h0a.1.1,0,0,0-.045-.014.091.091,0,0,0-.071.15h0a6.689,6.689,0,0,1-1.3,9.863,8.741,8.741,0,0,1-11.3-1.329,6.463,6.463,0,0,1-1.216-1.971,3.251,3.251,0,0,1-.087-.362c0-.011.009-.017.013-.026a8.691,8.691,0,0,0,5.117,1.887c8.184.035,7.386-7.7,1.959-7.718a7.415,7.415,0,0,0-4.931,2.078,9.939,9.939,0,0,0-2.34,3.472h0a10.884,10.884,0,0,0-.567,1.779c-.041.212-.09.481-.119.71a9.356,9.356,0,0,0-.1,1.015,10.943,10.943,0,0,0,19.912,6.826l-.055-.055a11.015,11.015,0,0,1-10.033,3.506,11.236,11.236,0,0,1-9.523-10.464,5.8,5.8,0,0,1,.15-1.315c0-.024.011-.048.016-.072a9.353,9.353,0,0,0,.119,1.108,11.133,11.133,0,0,0,12.352,9.178,10.331,10.331,0,0,0,8.822-9.669v-.006h0" transform="translate(-32.819 -31.972)" fill="#fff"/>
        </g>
      </g>
    </g>
  </g>
</svg>
