<svg xmlns="http://www.w3.org/2000/svg" width="15.305" height="15.304" viewBox="0 0 15.305 15.304">
  <g id="Group_4243" data-name="Group 4243" transform="translate(0 0)">
    <g id="Group_4234" data-name="Group 4234" transform="translate(0 4.245)">
      <g id="Group_4233" data-name="Group 4233">
        <path id="Path_2542" data-name="Path 2542" d="M1036.436,2076.951l-1.421-1.42a1.052,1.052,0,0,0-1.486,0l-.624.624a7.945,7.945,0,0,1-3.343-3.343l.624-.624a1.052,1.052,0,0,0,0-1.486l-1.421-1.42a1.052,1.052,0,0,0-1.486,0l-1.136,1.136c-.594.594-.612,1.64-.052,2.947a13.651,13.651,0,0,0,6.262,6.262,4.4,4.4,0,0,0,1.695.407,1.708,1.708,0,0,0,1.253-.459l1.136-1.136a1.052,1.052,0,0,0,0-1.486Zm-.635.853-1.136,1.136c-.307.307-1.04.256-1.959-.138a12.772,12.772,0,0,1-5.79-5.79c-.395-.92-.446-1.652-.138-1.96l1.136-1.136a.153.153,0,0,1,.218,0l1.421,1.42a.156.156,0,0,1,0,.218l-1.076,1.076.135.285a8.833,8.833,0,0,0,4.19,4.191l.286.135,1.075-1.076a.155.155,0,0,1,.219,0l1.42,1.421a.151.151,0,0,1,.045.108A.153.153,0,0,1,1035.8,2077.8Z" transform="translate(-1025.684 -2068.975)" fill="#fff"/>
      </g>
    </g>
    <g id="Group_4236" data-name="Group 4236" transform="translate(6.037 0)">
      <g id="Group_4235" data-name="Group 4235">
        <path id="Path_2543" data-name="Path 2543" d="M1041.188,2064.774a5.143,5.143,0,0,0-6.5,0,3.685,3.685,0,0,0,0,5.755,4.656,4.656,0,0,0,.506.376,7.665,7.665,0,0,1-1.141,1.351,7.547,7.547,0,0,0,2.643-.716,5.283,5.283,0,0,0,1.244.147,4.981,4.981,0,0,0,3.251-1.158,3.686,3.686,0,0,0,0-5.755Zm-3.251,6.016c-2.061,0-3.738-1.408-3.738-3.139s1.677-3.139,3.738-3.139,3.737,1.409,3.737,3.139S1040,2070.791,1037.938,2070.791Z" transform="translate(-1033.303 -2063.616)" fill="#fff"/>
      </g>
    </g>
    <g id="Group_4238" data-name="Group 4238" transform="translate(10.073 3.438)">
      <g id="Group_4237" data-name="Group 4237">
        <ellipse id="Ellipse_36" data-name="Ellipse 36" cx="0.598" cy="0.598" rx="0.598" ry="0.598" fill="#fff"/>
      </g>
    </g>
    <g id="Group_4240" data-name="Group 4240" transform="translate(7.98 3.438)">
      <g id="Group_4239" data-name="Group 4239">
        <ellipse id="Ellipse_37" data-name="Ellipse 37" cx="0.598" cy="0.598" rx="0.598" ry="0.598" fill="#fff"/>
      </g>
    </g>
    <g id="Group_4242" data-name="Group 4242" transform="translate(12.166 3.438)">
      <g id="Group_4241" data-name="Group 4241">
        <ellipse id="Ellipse_38" data-name="Ellipse 38" cx="0.598" cy="0.598" rx="0.598" ry="0.598" fill="#fff"/>
      </g>
    </g>
  </g>
</svg>
