<svg xmlns="http://www.w3.org/2000/svg" width="15.263" height="15.262" viewBox="0 0 15.263 15.262">
  <g id="Group_4249" data-name="Group 4249" transform="translate(0)">
    <g id="Group_4246" data-name="Group 4246" transform="translate(0 0)">
      <g id="Group_4245" data-name="Group 4245">
        <path id="Path_2545" data-name="Path 2545" d="M1278.712,2065.142a7.311,7.311,0,0,0-11.574,8.7l-1.548,4.422,4.422-1.547a7.312,7.312,0,0,0,8.7-11.574Zm-5.17,11.585a6.408,6.408,0,0,1-3.257-.887l-.179-.106-3.056,1.07,1.07-3.055-.106-.18a6.416,6.416,0,1,1,5.529,3.159Z" transform="translate(-1265.59 -2063)" fill="#fff"/>
      </g>
    </g>
    <g id="Group_4248" data-name="Group 4248" transform="translate(3.701 3.118)">
      <g id="Group_4247" data-name="Group 4247">
        <path id="Path_2546" data-name="Path 2546" d="M1278.443,2072.9l-1.055-1.055a.9.9,0,0,0-1.266,0l-.4.4a5.786,5.786,0,0,1-2.322-2.322l.4-.4a.9.9,0,0,0,0-1.267l-1.055-1.055a.9.9,0,0,0-1.266,0l-.844.845c-.476.476-.5,1.3-.063,2.315a10.26,10.26,0,0,0,4.712,4.711,3.382,3.382,0,0,0,1.3.312,1.379,1.379,0,0,0,1.011-.375l.844-.844a.9.9,0,0,0,0-1.266Zm-1.477,1.477c-.189.189-.711.139-1.329-.127a9.377,9.377,0,0,1-4.241-4.241c-.265-.619-.315-1.141-.127-1.329l.844-.845,1.055,1.055-.856.856.135.285a6.672,6.672,0,0,0,3.167,3.167l.285.135.856-.856,1.055,1.055Z" transform="translate(-1270.26 -2066.935)" fill="#fff"/>
      </g>
    </g>
  </g>
</svg>
