<svg xmlns="http://www.w3.org/2000/svg" width="14.413" height="11.322" viewBox="0 0 14.413 11.322">
  <path id="Path_2544" data-name="Path 2544" d="M1126.661,2070h-10.252a2.083,2.083,0,0,0-2.081,2.081v7.161a2.083,2.083,0,0,0,2.081,2.081h10.252a2.083,2.083,0,0,0,2.081-2.081v-7.161A2.083,2.083,0,0,0,1126.661,2070Zm0,.994a1.059,1.059,0,0,1,.247.03l-4.325,4.907a1.4,1.4,0,0,1-2.1,0l-4.325-4.907a1.064,1.064,0,0,1,.247-.03Zm1.086,8.248a1.087,1.087,0,0,1-1.086,1.086h-10.252a1.087,1.087,0,0,1-1.086-1.086v-7.161a1.076,1.076,0,0,1,.082-.411l4.336,4.92a2.393,2.393,0,0,0,3.589,0l4.337-4.92a1.076,1.076,0,0,1,.082.411Z" transform="translate(-1114.328 -2070)" fill="#fff"/>
</svg>
