<svg xmlns="http://www.w3.org/2000/svg" width="24.475" height="16.76" viewBox="0 0 24.475 16.76">
  <path id="Icon_map-university" data-name="Icon map-university" d="M12.113,19.6a7.833,7.833,0,0,0-6.169,2.872v3.261H18.283V22.472A7.835,7.835,0,0,0,12.113,19.6Zm11.329-1.673L12.083,10.08.729,17.927l1.893,1.3v2c-.475.147-.476.52-.476.963a1.609,1.609,0,0,0,.168.752l-.649,2.083H3.98l-.644-2.085a1.489,1.489,0,0,0,.2-.716c0-.443-.438-.852-.438-1V19.559l2.373,1.6v-.142a8.392,8.392,0,0,1,6.643-3.034,8.394,8.394,0,0,1,6.645,3.034v.142Z" transform="translate(0.153 -9.472)" fill="none" stroke="#121212" stroke-width="1"/>
</svg>
