<svg xmlns="http://www.w3.org/2000/svg" width="33.57" height="33.57" viewBox="0 0 33.57 33.57">
  <g id="Group_7141" data-name="Group 7141" transform="translate(21687 6361)">
    <g id="Group_7140" data-name="Group 7140" transform="translate(-24567 -9898)">
      <path id="Path_3042" data-name="Path 3042" d="M943.841,634.45h0a16.785,16.785,0,1,1,16.785-16.785,16.785,16.785,0,0,1-16.785,16.785" transform="translate(1952.944 2936.12)" fill="#fff"/>
      <path id="Path_3043" data-name="Path 3043" d="M952.306,625.636a1.058,1.058,0,0,1-1.463.326,16.466,16.466,0,0,0-9.116-2.12,23.962,23.962,0,0,0-4.927.638,1.06,1.06,0,0,1-.548-2.048,25.662,25.662,0,0,1,5.359-.707,22.465,22.465,0,0,1,5.065.389,15.476,15.476,0,0,1,5.3,2.059A1.06,1.06,0,0,1,952.306,625.636Z" transform="translate(1952.059 2934.815)" fill="#161615"/>
      <path id="Path_3044" data-name="Path 3044" d="M952.394,621.22a1.154,1.154,0,0,1-1.019.659,1.072,1.072,0,0,1-.575-.169,18.092,18.092,0,0,0-14.479-1.854,1.151,1.151,0,0,1-1.47-.842,1.332,1.332,0,0,1,.759-1.632,18.9,18.9,0,0,1,5.194-.859,19.548,19.548,0,0,1,11.149,2.927A1.377,1.377,0,0,1,952.394,621.22Z" transform="translate(1952.944 2935.11)" fill="#161615"/>
      <path id="Path_3045" data-name="Path 3045" d="M954.732,616.111a1.443,1.443,0,0,1-1.285.839,1.357,1.357,0,0,1-.687-.189c-8.065-4.724-17.029-1.894-17.119-1.865a1.44,1.44,0,0,1-1.81-1.07,1.618,1.618,0,0,1,.98-1.978,25.159,25.159,0,0,1,6.216-.979,26.076,26.076,0,0,1,6.173.47,22.4,22.4,0,0,1,6.937,2.619A1.667,1.667,0,0,1,954.732,616.111Z" transform="translate(1952.944 2935.46)" fill="#161615"/>
    </g>
  </g>
</svg>
