<svg id="Group_4228" data-name="Group 4228" xmlns="http://www.w3.org/2000/svg" width="33.573" height="33.573" viewBox="0 0 33.573 33.573">
  <g id="Group_4227" data-name="Group 4227" transform="translate(0 0)">
    <path id="Path_2534" data-name="Path 2534" d="M804.973,2123.695h0a16.787,16.787,0,1,1,16.787-16.787,16.786,16.786,0,0,1-16.787,16.787" transform="translate(-788.186 -2090.121)" fill="#fff"/>
    <path id="Path_2535" data-name="Path 2535" d="M792.814,2108.627a10.438,10.438,0,0,0,16.058-9.268,7.42,7.42,0,0,0,1.83-1.9,7.326,7.326,0,0,1-2.108.578,3.683,3.683,0,0,0,1.615-2.03,7.363,7.363,0,0,1-2.332.89,3.671,3.671,0,0,0-6.252,3.348,10.4,10.4,0,0,1-7.564-3.834,3.674,3.674,0,0,0,1.135,4.9,3.694,3.694,0,0,1-1.664-.459,3.674,3.674,0,0,0,2.943,3.644,3.66,3.66,0,0,1-1.655.063,3.669,3.669,0,0,0,3.428,2.548,7.379,7.379,0,0,1-5.434,1.52" transform="translate(-784.972 -2086.221)" fill="#1d1e1c"/>
  </g>
</svg>
