<svg xmlns="http://www.w3.org/2000/svg" width="33.573" height="33.573" viewBox="0 0 33.573 33.573">
  <g id="Group_7144" data-name="Group 7144" transform="translate(21894.783 6358.273)">
    <g id="Group_7137" data-name="Group 7137" transform="translate(-21894.783 -6358.273)">
      <path id="Path_2538" data-name="Path 2538" d="M866.973,2123.81h0a16.787,16.787,0,1,1,16.787-16.787,16.787,16.787,0,0,1-16.787,16.787" transform="translate(-850.186 -2090.236)" fill="#fff"/>
      <path id="Path_2539" data-name="Path 2539" d="M863.865,2094.711c-2.5,0-2.813.01-3.8.054a6.792,6.792,0,0,0-2.233.429,4.7,4.7,0,0,0-2.693,2.692,6.744,6.744,0,0,0-.427,2.233c-.046.982-.056,1.295-.056,3.8s.01,2.813.056,3.8a6.747,6.747,0,0,0,.427,2.233,4.7,4.7,0,0,0,2.693,2.692,6.78,6.78,0,0,0,2.233.429c.983.044,1.3.054,3.8.054s2.813-.01,3.8-.054a6.779,6.779,0,0,0,2.233-.429,4.714,4.714,0,0,0,2.692-2.692,6.745,6.745,0,0,0,.427-2.233c.046-.983.056-1.3.056-3.8s-.01-2.813-.056-3.8a6.743,6.743,0,0,0-.427-2.233,4.715,4.715,0,0,0-2.692-2.692,6.791,6.791,0,0,0-2.233-.429c-.983-.044-1.3-.054-3.8-.054m0,1.659c2.457,0,2.748.009,3.719.053a5.12,5.12,0,0,1,1.71.317,3.05,3.05,0,0,1,1.747,1.747,5.129,5.129,0,0,1,.315,1.71c.046.971.054,1.262.054,3.719s-.008,2.748-.054,3.719a5.1,5.1,0,0,1-.315,1.708,3.061,3.061,0,0,1-1.747,1.749,5.113,5.113,0,0,1-1.71.317c-.971.044-1.262.052-3.719.052s-2.748-.008-3.719-.052a5.093,5.093,0,0,1-1.71-.317,3.062,3.062,0,0,1-1.747-1.749,5.089,5.089,0,0,1-.317-1.708c-.044-.971-.054-1.262-.054-3.719s.01-2.748.054-3.719a5.117,5.117,0,0,1,.317-1.71,3.051,3.051,0,0,1,1.747-1.747,5.1,5.1,0,0,1,1.71-.317c.971-.044,1.261-.053,3.719-.053" transform="translate(-847.078 -2087.129)"/>
      <path id="Path_2540" data-name="Path 2540" d="M862.031,2105.149a3.069,3.069,0,1,1,3.069-3.069,3.069,3.069,0,0,1-3.069,3.069m0-7.795a4.726,4.726,0,1,0,4.726,4.726,4.728,4.728,0,0,0-4.726-4.726" transform="translate(-845.244 -2085.293)" fill="#1d1e1c"/>
      <path id="Path_2541" data-name="Path 2541" d="M864.549,2097.7a1.1,1.1,0,1,1-1.1-1.1,1.1,1.1,0,0,1,1.1,1.1" transform="translate(-841.745 -2085.822)" fill="#1d1e1c"/>
    </g>
  </g>
</svg>
