<svg xmlns="http://www.w3.org/2000/svg" width="33.574" height="33.574" viewBox="0 0 33.574 33.574">
  <g id="Group_7142" data-name="Group 7142" transform="translate(21756.835 6358)">
    <path id="Trazado_2536" data-name="Trazado 2536" d="M1088.157,582.772h0a16.787,16.787,0,1,1,16.787-16.787,16.787,16.787,0,0,1-16.787,16.787h0" transform="translate(-22828.205 -6907.198)" fill="#fff"/>
    <g id="Group_7135" data-name="Group 7135" transform="translate(-21748.482 -6347.156)">
      <path id="Path_2878" data-name="Path 2878" d="M1402.256,858.273a2.119,2.119,0,0,0-1.491-1.5,61.315,61.315,0,0,0-13.181,0,2.121,2.121,0,0,0-1.491,1.5,23.894,23.894,0,0,0,0,8.173,2.119,2.119,0,0,0,1.491,1.5,61.325,61.325,0,0,0,13.181,0,2.118,2.118,0,0,0,1.491-1.5,23.886,23.886,0,0,0,0-8.173" transform="translate(-1385.74 -856.417)"/>
      <path id="Path_2879" data-name="Path 2879" d="M1394.466,865.9v-5.016l4.409,2.509Z" transform="translate(-1387.758 -857.45)" fill="#fff"/>
    </g>
  </g>
</svg>
