<svg xmlns="http://www.w3.org/2000/svg" width="20.167" height="19.927" viewBox="0 0 20.167 19.927">
  <g id="Group_7143" data-name="Group 7143" transform="translate(2470.397 1113.872)">
    <path id="Path_2413" data-name="Path 2413" d="M3735.044,623.965a8.285,8.285,0,1,1,8.285-8.285A8.294,8.294,0,0,1,3735.044,623.965Zm0-14.389a6.1,6.1,0,1,0,6.1,6.1A6.111,6.111,0,0,0,3735.044,609.576Z" transform="translate(-6197.156 -1721.267)" fill="#fff"/>
    <path id="Path_2414" data-name="Path 2414" d="M3780.523,661.594a1.086,1.086,0,0,1-.764-.313l-5.632-5.54a1.09,1.09,0,0,1,1.529-1.555l5.632,5.54a1.09,1.09,0,0,1-.765,1.868Z" transform="translate(-6231.844 -1755.539)" fill="#fff"/>
  </g>
</svg>
