<svg xmlns="http://www.w3.org/2000/svg" width="30.893" height="20.595" viewBox="0 0 30.893 20.595">
  <path id="Icon_awesome-ticket-alt" data-name="Icon awesome-ticket-alt" d="M6.865,9.649H24.028v10.3H6.865ZM28.318,14.8a2.574,2.574,0,0,0,2.574,2.574v5.149A2.574,2.574,0,0,1,28.318,25.1H2.574A2.574,2.574,0,0,1,0,22.521V17.372A2.574,2.574,0,0,0,2.574,14.8,2.574,2.574,0,0,0,0,12.223V7.074A2.574,2.574,0,0,1,2.574,4.5H28.318a2.574,2.574,0,0,1,2.574,2.574v5.149A2.574,2.574,0,0,0,28.318,14.8ZM25.744,9.22a1.287,1.287,0,0,0-1.287-1.287H6.436A1.287,1.287,0,0,0,5.149,9.22V20.375a1.287,1.287,0,0,0,1.287,1.287H24.457a1.287,1.287,0,0,0,1.287-1.287Z" transform="translate(0 -4.5)" fill="#fff"/>
</svg>
