<svg xmlns="http://www.w3.org/2000/svg" width="33.573" height="33.574" viewBox="0 0 33.573 33.574">
  <g id="Group_5562" data-name="Group 5562" transform="translate(-511 -2501)">
    <path id="Path_2750" data-name="Path 2750" d="M866.973,2123.81h0a16.787,16.787,0,1,1,16.787-16.787,16.787,16.787,0,0,1-16.787,16.787" transform="translate(-339.186 410.764)" fill="#fff"/>
    <path id="Icon_ionic-logo-whatsapp" data-name="Icon ionic-logo-whatsapp" d="M11.183,2.25A8.581,8.581,0,0,0,2.569,10.8,8.46,8.46,0,0,0,3.8,15.212L2.25,19.8l4.769-1.515A8.629,8.629,0,0,0,19.8,10.8,8.581,8.581,0,0,0,11.183,2.25Zm4.284,11.794a2.225,2.225,0,0,1-1.524.982c-.4.021-.416.313-2.618-.644a8.988,8.988,0,0,1-3.632-3.434,4.225,4.225,0,0,1-.813-2.29,2.441,2.441,0,0,1,.838-1.791.844.844,0,0,1,.6-.251c.173,0,.286-.005.414,0s.321-.027.488.417.566,1.534.617,1.645a.4.4,0,0,1,0,.383,1.5,1.5,0,0,1-.233.356c-.115.123-.242.276-.344.37s-.234.218-.114.441a6.592,6.592,0,0,0,1.166,1.556,6.01,6.01,0,0,0,1.727,1.148c.216.118.345.1.479-.036s.573-.617.728-.829.3-.171.5-.091,1.26.648,1.476.766.36.177.412.27A1.809,1.809,0,0,1,15.467,14.044Z" transform="translate(516.75 2506.75)" fill="#121212"/>
  </g>
</svg>
