<svg xmlns="http://www.w3.org/2000/svg" xmlns:xlink="http://www.w3.org/1999/xlink" width="33.574" height="33.574" viewBox="0 0 33.574 33.574">
  <defs>
    <clipPath id="clip-path">
      <rect id="Rectangle_495" data-name="Rectangle 495" width="17.538" height="17.546"/>
    </clipPath>
  </defs>
  <g id="Group_7143" data-name="Group 7143" transform="translate(21825.81 6358.273)">
    <path id="Trazado_2536" data-name="Trazado 2536" d="M1088.157,582.772h0a16.787,16.787,0,1,1,16.787-16.787,16.787,16.787,0,0,1-16.787,16.787h0" transform="translate(-22897.18 -6907.471)" fill="#fff"/>
    <rect id="Rectangle_855" data-name="Rectangle 855" width="3.621" height="11.697" transform="translate(-21815.717 -6345.625)"/>
    <g id="Group_7136" data-name="Group 7136" transform="translate(-21816.066 -6351.474)">
      <g id="Group_4694" data-name="Group 4694" clip-path="url(#clip-path)">
        <path id="Path_2887" data-name="Path 2887" d="M1239.589,859.478a2.159,2.159,0,1,0-2.141-2.159,2.15,2.15,0,0,0,2.141,2.159" transform="translate(-1237.448 -855.161)"/>
        <path id="Path_2888" data-name="Path 2888" d="M1247.2,866.567c0-1.644.757-2.624,2.206-2.624,1.331,0,1.971.94,1.971,2.624v6.14h3.6V865.3c0-3.133-1.776-4.648-4.256-4.648a4.079,4.079,0,0,0-3.525,1.933V861.01h-3.474v11.7h3.474Z" transform="translate(-1237.448 -855.161)"/>
      </g>
    </g>
  </g>
</svg>
